<svg viewBox="0 0 814 390" fill="none" xmlns="http://www.w3.org/2000/svg">
<path d="M480.358 377.961C489.463 371.385 491.487 358.708 484.879 349.647C478.271 340.586 465.533 338.571 456.428 345.147C447.323 351.723 445.299 364.4 451.907 373.461C458.515 382.522 471.253 384.537 480.358 377.961Z" fill="#FF725E"/>
<path d="M130.218 363.894L173.751 382.297L460.951 381.754L459.88 341.006L174.501 341.897L130.208 360.707C129.895 360.842 129.629 361.065 129.442 361.349C129.255 361.632 129.156 361.964 129.157 362.304C129.158 362.643 129.259 362.974 129.448 363.257C129.636 363.54 129.904 363.761 130.218 363.894V363.894Z" fill="#FF725E"/>
<g opacity="0.7">
<path d="M174.501 341.897C175.669 343.573 175.367 345.772 173.528 346.585C175.389 347.029 177.064 348.042 178.317 349.483C179.569 350.924 180.336 352.719 180.509 354.617C180.682 356.514 180.253 358.418 179.281 360.059C178.31 361.701 176.846 362.998 175.095 363.768C176.637 364.842 177.868 366.303 178.662 368.002C179.457 369.701 179.787 371.579 179.619 373.446C179.451 375.312 178.791 377.102 177.707 378.634C176.622 380.166 175.15 381.386 173.44 382.171L130.519 364C130.183 363.857 129.897 363.619 129.695 363.315C129.494 363.011 129.386 362.655 129.386 362.291C129.386 361.927 129.494 361.571 129.695 361.267C129.897 360.963 130.183 360.724 130.519 360.581L174.501 341.897Z" fill="white"/>
</g>
<path d="M146.315 369.724C148.155 368.136 151.99 363.497 146.929 355.196C146.72 354.857 146.396 354.603 146.016 354.48C145.636 354.358 145.224 354.374 144.856 354.528L130.023 360.823C129.727 360.953 129.476 361.165 129.3 361.434C129.123 361.703 129.029 362.018 129.029 362.339C129.029 362.66 129.123 362.975 129.3 363.244C129.476 363.513 129.727 363.725 130.023 363.855L144.622 370.025C144.905 370.134 145.212 370.164 145.511 370.111C145.81 370.058 146.088 369.924 146.315 369.724V369.724Z" fill="#FF725E"/>
<g opacity="0.3">
<path d="M175.056 363.768L458.625 361.927L459.598 381.715L173.713 382.326L173.362 382.18C174.824 381.541 176.116 380.572 177.139 379.352C178.467 377.752 179.317 375.812 179.591 373.754C179.905 371.239 179.293 368.697 177.869 366.596C177.118 365.486 176.164 364.526 175.056 363.768V363.768Z" fill="black"/>
</g>
<g opacity="0.3">
<path d="M173.489 346.585L459.919 346.033L459.656 340.793L174.491 341.897C174.982 342.532 175.218 343.326 175.154 344.125C175.089 344.923 174.728 345.669 174.141 346.217C173.937 346.362 173.718 346.486 173.489 346.585V346.585Z" fill="black"/>
</g>
<path d="M165.12 369.163C165.309 369.208 165.508 369.187 165.684 369.105C165.926 368.975 166.111 368.76 166.204 368.503C166.298 368.246 166.292 367.964 166.19 367.71C165.81 366.917 165.195 366.258 164.428 365.821C163.966 365.534 163.426 365.396 162.881 365.424C162.583 365.432 162.292 365.516 162.036 365.669C161.78 365.822 161.568 366.038 161.421 366.296C161.283 366.6 161.212 366.93 161.212 367.264C161.212 367.598 161.283 367.929 161.421 368.233C161.702 368.916 162.078 369.555 162.54 370.131C163.508 371.438 164.742 372.527 166.161 373.328C166.527 373.547 166.936 373.687 167.36 373.739C167.784 373.79 168.215 373.753 168.623 373.628C169.025 373.44 169.374 373.158 169.64 372.805C169.907 372.452 170.082 372.039 170.151 371.604C170.434 369.783 169.441 367.904 168.205 366.402C167.03 364.958 165.479 363.863 163.722 363.236C161.964 362.609 160.068 362.475 158.239 362.848C157.846 362.957 157.484 363.155 157.181 363.425C156.877 363.695 156.64 364.031 156.487 364.407C156.222 365.139 156.139 365.923 156.243 366.693C156.421 368.099 156.812 369.471 157.402 370.761C158.257 372.64 159.478 374.332 160.993 375.739C161.538 376.224 161.966 376.582 162.287 376.814C162.609 377.047 162.754 377.173 162.754 377.173C162.098 376.782 161.482 376.328 160.915 375.817C159.353 374.43 158.094 372.739 157.217 370.848C156.609 369.541 156.202 368.15 156.01 366.722C155.893 365.91 155.977 365.083 156.253 364.31C156.424 363.896 156.688 363.527 157.026 363.231C157.363 362.935 157.765 362.721 158.2 362.606C160.081 362.204 162.037 362.329 163.851 362.967C165.666 363.605 167.267 364.73 168.477 366.218C169.12 366.988 169.642 367.85 170.025 368.775C170.442 369.684 170.587 370.693 170.443 371.681C170.369 372.163 170.174 372.619 169.877 373.007C169.579 373.395 169.188 373.701 168.74 373.899C168.297 374.038 167.829 374.081 167.367 374.026C166.906 373.97 166.461 373.818 166.064 373.579C164.614 372.754 163.354 371.635 162.365 370.296C161.897 369.708 161.517 369.055 161.236 368.359C161.089 368.033 161.013 367.68 161.013 367.322C161.013 366.965 161.089 366.612 161.236 366.286C161.402 366 161.638 365.761 161.922 365.592C162.207 365.422 162.53 365.328 162.862 365.318C163.44 365.296 164.01 365.451 164.497 365.763C165.292 366.221 165.919 366.92 166.287 367.758C166.392 368.033 166.389 368.337 166.279 368.61C166.169 368.882 165.96 369.104 165.694 369.231C165.6 369.267 165.498 369.28 165.398 369.268C165.298 369.256 165.202 369.22 165.12 369.163V369.163Z" fill="white"/>
<path d="M154.812 350.76C154.812 350.76 154.997 351.312 155.513 352.222C156.264 353.481 157.256 354.58 158.433 355.457C160.215 356.732 162.138 357.798 164.166 358.634C166.689 359.627 169.03 361.028 171.095 362.78C173.052 364.674 174.406 367.099 174.988 369.754C175.387 371.564 175.407 373.436 175.047 375.254C174.687 377.072 173.955 378.797 172.896 380.321C172.593 380.772 172.247 381.194 171.864 381.58C171.935 381.46 172.017 381.347 172.107 381.241C172.354 380.93 172.585 380.607 172.798 380.272C173.605 379.038 174.213 377.684 174.599 376.262C175.168 374.158 175.215 371.948 174.735 369.821C174.132 367.217 172.779 364.844 170.842 362.993C168.808 361.266 166.508 359.876 164.029 358.876C162.006 358.017 160.095 356.917 158.336 355.603C157.136 354.707 156.141 353.568 155.416 352.261C155.146 351.791 154.943 351.286 154.812 350.76V350.76Z" fill="white"/>
<path d="M165.509 345.53C165.165 346.503 165.192 347.568 165.586 348.522C166.709 350.741 168.167 352.776 169.908 354.557C171.593 356.396 173.443 358.079 175.436 359.584C176.195 360.165 176.837 360.61 177.275 360.92C177.518 361.063 177.746 361.228 177.957 361.414C177.698 361.301 177.451 361.165 177.217 361.007C176.759 360.726 176.098 360.31 175.27 359.748C173.223 358.281 171.338 356.602 169.645 354.741C168.714 353.721 167.84 352.65 167.027 351.535C166.335 350.649 165.772 349.671 165.353 348.629C165.072 347.904 165.001 347.116 165.148 346.353C165.22 346.06 165.342 345.781 165.509 345.53V345.53Z" fill="white"/>
<path d="M180.428 356.252C179.888 356.082 179.369 355.851 178.881 355.564C177.632 354.964 176.537 354.09 175.679 353.007C175.233 352.467 174.914 351.834 174.746 351.155C174.577 350.477 174.564 349.769 174.705 349.084C174.805 348.676 174.976 348.289 175.212 347.941C175.387 347.699 175.523 347.602 175.533 347.612C175.24 348.081 175.027 348.595 174.9 349.133C174.791 349.784 174.821 350.452 174.988 351.091C175.156 351.73 175.458 352.327 175.873 352.842C176.72 353.885 177.765 354.751 178.949 355.39C179.459 355.648 179.953 355.936 180.428 356.252Z" fill="white"/>
<path d="M148.048 353.026C148.048 353.026 148.135 353.026 148.272 353.123C148.408 353.22 148.632 353.298 148.895 353.452C149.228 353.632 149.525 353.872 149.77 354.16C150.073 354.56 150.279 355.024 150.374 355.516C150.646 356.581 150.715 357.879 150.909 359.283C151.131 360.812 151.486 362.319 151.97 363.787C152.877 366.455 153.997 369.046 155.318 371.536L156.486 373.822C156.644 374.094 156.777 374.379 156.885 374.674C156.698 374.42 156.532 374.151 156.389 373.87C156.087 373.347 155.649 372.582 155.133 371.633C153.754 369.159 152.604 366.565 151.698 363.884C151.208 362.402 150.856 360.878 150.646 359.332C150.461 357.908 150.423 356.62 150.169 355.574C150.119 355.158 149.973 354.76 149.741 354.41C149.51 354.06 149.2 353.769 148.836 353.559C148.564 353.396 148.3 353.218 148.048 353.026V353.026Z" fill="white"/>
<path d="M473.379 345.917C473.379 346.082 470.168 346.208 466.197 346.198C463.796 346.291 461.391 346.197 459.004 345.917C459.004 345.752 462.216 345.626 466.197 345.636C468.595 345.543 470.996 345.637 473.379 345.917V345.917Z" fill="#263238"/>
<path d="M473.555 361.492C473.555 361.656 470.227 361.792 466.119 361.986C463.644 362.196 461.158 362.264 458.674 362.189C463.591 361.389 468.584 361.155 473.555 361.492V361.492Z" fill="#263238"/>
<path d="M437.573 306.426H367.897C362.765 306.426 357.843 304.424 354.213 300.861C350.583 297.297 348.542 292.463 348.539 287.422C348.539 282.379 350.579 277.542 354.209 273.976C357.84 270.41 362.763 268.407 367.897 268.407H437.563L437.573 306.426Z" fill="#F29188"/>
<path d="M418.293 268.407H573.547C574.304 268.407 575.029 268.702 575.564 269.228C576.099 269.753 576.399 270.465 576.399 271.208V271.877C576.408 272.251 576.341 272.622 576.202 272.97C576.063 273.317 575.854 273.634 575.588 273.901C575.323 274.169 575.005 274.381 574.655 274.526C574.304 274.671 573.928 274.745 573.547 274.745H418.293V268.436V268.407Z" fill="#F29188"/>
<path d="M418.293 300.117H573.547C574.304 300.117 575.029 300.412 575.564 300.937C576.099 301.463 576.399 302.175 576.399 302.918V303.625C576.399 304.368 576.099 305.081 575.564 305.606C575.029 306.131 574.304 306.426 573.547 306.426H418.293V300.117Z" fill="#F29188"/>
<path d="M571.679 300.117H435.938C432.51 300.117 429.223 298.779 426.799 296.399C424.375 294.018 423.013 290.789 423.013 287.422V287.422C423.018 284.058 424.382 280.834 426.806 278.457C429.229 276.08 432.514 274.745 435.938 274.745H571.679C569.883 278.742 568.955 283.063 568.955 287.431C568.955 291.8 569.883 296.12 571.679 300.117V300.117Z" fill="#F5F5F5"/>
<g opacity="0.3">
<path d="M423.014 306.427H367.966C362.82 306.414 357.889 304.4 354.251 300.827C350.612 297.253 348.562 292.409 348.549 287.355V287.355C348.551 284.862 349.052 282.394 350.026 280.092C351 277.79 352.426 275.699 354.223 273.939C356.02 272.179 358.153 270.785 360.499 269.836C362.846 268.886 365.36 268.401 367.898 268.407H424.532C410.468 276.743 411.519 296.733 423.014 306.427Z" fill="#9D6A65"/>
</g>
<path d="M555.192 288.597C555.192 288.722 527.328 288.827 492.962 288.827C458.596 288.827 430.731 288.722 430.731 288.597C430.731 288.473 458.596 288.368 492.962 288.368C527.328 288.368 555.192 288.473 555.192 288.597Z" fill="#263238"/>
<path d="M567.999 294.238C567.999 294.362 540.135 294.467 505.769 294.467C471.403 294.467 443.539 294.362 443.539 294.238C443.539 294.113 471.393 294.008 505.769 294.008C540.145 294.008 567.999 294.113 567.999 294.238Z" fill="#263238"/>
<path d="M564.224 280.586C564.224 280.72 536.359 280.816 501.993 280.816C467.628 280.816 439.763 280.72 439.763 280.586C439.763 280.452 467.618 280.366 501.993 280.366C536.369 280.366 564.224 280.481 564.224 280.586Z" fill="#263238"/>
<path d="M416.19 303.759C416.19 303.884 403.149 303.989 387.071 303.989C370.992 303.989 357.941 303.884 357.941 303.759C357.941 303.635 370.983 303.53 387.071 303.53C403.159 303.53 416.19 303.635 416.19 303.759Z" fill="#263238"/>
<path d="M416.19 271.562C416.19 271.686 403.149 271.791 387.071 271.791C370.992 271.791 357.941 271.686 357.941 271.562C357.941 271.438 370.983 271.332 387.071 271.332C403.159 271.332 416.19 271.438 416.19 271.562Z" fill="#263238"/>
<path d="M340.909 333.117H430.634V382.083H340.909C334.299 382.083 327.959 379.503 323.285 374.912C318.61 370.321 315.984 364.093 315.984 357.6C315.984 351.107 318.61 344.88 323.285 340.288C327.959 335.697 334.299 333.117 340.909 333.117V333.117Z" fill="#FF725E"/>
<path d="M405.855 333.117H606.57C607.327 333.117 608.052 333.413 608.587 333.938C609.122 334.463 609.422 335.176 609.422 335.918V338.442C609.422 339.185 609.122 339.898 608.587 340.423C608.052 340.948 607.327 341.243 606.57 341.243H405.855V333.117Z" fill="#FF725E"/>
<path d="M413.155 374.005H613.871C614.627 374.005 615.352 374.3 615.887 374.825C616.422 375.35 616.722 376.063 616.722 376.806V379.329C616.722 380.072 616.422 380.785 615.887 381.31C615.352 381.835 614.627 382.13 613.871 382.13H413.155V374.005Z" fill="#FF725E"/>
<path d="M603.348 373.947H428.531C424.115 373.947 419.879 372.224 416.756 369.157C413.633 366.089 411.879 361.929 411.879 357.59V357.59C411.881 353.254 413.637 349.096 416.76 346.031C419.882 342.965 424.116 341.243 428.531 341.243H603.348C601.029 346.394 599.83 351.963 599.83 357.595C599.83 363.227 601.029 368.797 603.348 373.947V373.947Z" fill="#F5F5F5"/>
<g opacity="0.4">
<path d="M411.879 382.073H340.646C334.108 382.073 327.838 379.522 323.214 374.981C318.591 370.44 315.994 364.28 315.994 357.858V357.858C315.992 354.609 316.643 351.391 317.908 348.389C319.174 345.387 321.029 342.659 323.368 340.361C325.707 338.063 328.485 336.241 331.541 334.998C334.598 333.755 337.874 333.116 341.182 333.117H413.777C395.733 343.853 397.096 369.569 411.879 382.073Z" fill="black"/>
</g>
<path d="M582.103 359.11C582.103 359.235 546.218 359.34 501.974 359.34C457.73 359.34 421.826 359.235 421.826 359.11C421.826 358.986 457.7 358.881 501.974 358.881C546.248 358.881 582.103 358.986 582.103 359.11Z" fill="#263238"/>
<path d="M598.56 366.386C598.56 366.51 562.676 366.605 518.422 366.605C474.168 366.605 438.284 366.51 438.284 366.386C438.284 366.261 474.158 366.156 518.422 366.156C562.686 366.156 598.56 366.252 598.56 366.386Z" fill="#263238"/>
<path d="M593.694 352.371C593.694 352.495 557.81 352.591 513.566 352.591C469.321 352.591 433.418 352.495 433.418 352.371C433.418 352.247 469.292 352.141 513.566 352.141C557.839 352.141 593.694 352.237 593.694 352.371Z" fill="#263238"/>
<path d="M403.101 378.641C403.101 378.765 386.312 378.871 365.591 378.871C344.87 378.871 328.082 378.765 328.082 378.641C328.082 378.517 344.87 378.412 365.591 378.412C386.312 378.412 403.101 378.517 403.101 378.641Z" fill="#263238"/>
<path d="M403.101 337.18C403.101 337.305 386.312 337.4 365.591 337.4C344.87 337.4 328.082 337.305 328.082 337.18C328.082 337.056 344.87 336.951 365.591 336.951C386.312 336.951 403.101 337.056 403.101 337.18Z" fill="#263238"/>
<path d="M460.415 333.289H381.523C377.739 333.289 374.11 331.813 371.434 329.185C368.758 326.556 367.255 322.992 367.255 319.275V319.275C367.255 315.558 368.758 311.993 371.434 309.365C374.11 306.737 377.739 305.26 381.523 305.26H460.406L460.415 333.289Z" fill="#455A64"/>
<path d="M440.24 305.26H602.677C603.07 305.26 603.46 305.336 603.823 305.484C604.186 305.633 604.516 305.85 604.793 306.123C605.071 306.397 605.291 306.721 605.441 307.079C605.59 307.436 605.666 307.818 605.665 308.205V308.95C605.665 309.336 605.588 309.717 605.438 310.073C605.288 310.429 605.067 310.753 604.79 311.025C604.513 311.298 604.183 311.514 603.821 311.662C603.458 311.809 603.07 311.885 602.677 311.885H440.24V305.279V305.26Z" fill="#455A64"/>
<path d="M440.24 326.684H602.677C603.47 326.684 604.23 326.993 604.79 327.543C605.35 328.094 605.665 328.84 605.665 329.619V330.364C605.665 331.143 605.35 331.889 604.79 332.439C604.23 332.99 603.47 333.299 602.677 333.299H440.24V326.693V326.684Z" fill="#455A64"/>
<path d="M600.732 326.684H452.718C450.718 326.684 448.799 325.903 447.385 324.514C445.97 323.124 445.175 321.24 445.175 319.275V319.275C445.175 317.31 445.97 315.425 447.385 314.036C448.799 312.647 450.718 311.866 452.718 311.866H600.732C596.929 316.812 596.929 321.751 600.732 326.684Z" fill="#F5F5F5"/>
<g opacity="0.3">
<path d="M445.175 333.289H381.416C377.663 333.289 374.064 331.825 371.41 329.218C368.756 326.612 367.265 323.076 367.265 319.39C367.265 315.642 368.781 312.048 371.478 309.399C374.176 306.749 377.835 305.26 381.65 305.26H446.732C432.045 311.407 433.106 326.129 445.175 333.289Z" fill="black"/>
</g>
<path d="M583.475 318.109C583.475 318.233 554.326 318.338 518.364 318.338C482.402 318.338 453.252 318.233 453.252 318.109C453.252 317.984 482.402 317.879 518.364 317.879C554.326 317.879 583.475 317.984 583.475 318.109Z" fill="#263238"/>
<path d="M596.877 322.095C596.877 322.219 567.679 322.324 531.766 322.324C495.852 322.324 466.655 322.219 466.655 322.095C466.655 321.971 495.804 321.875 531.766 321.875C567.728 321.875 596.877 321.971 596.877 322.095Z" fill="#263238"/>
<path d="M438.04 330.508C438.04 330.632 424.415 330.727 407.567 330.727C390.72 330.727 377.085 330.632 377.085 330.508C377.085 330.383 390.711 330.278 407.567 330.278C424.424 330.278 438.04 330.374 438.04 330.508Z" fill="#263238"/>
<path d="M438.04 308.558C438.04 308.683 424.415 308.788 407.567 308.788C390.72 308.788 377.085 308.683 377.085 308.558C377.085 308.434 390.711 308.329 407.567 308.329C424.424 308.329 438.04 308.434 438.04 308.558Z" fill="#263238"/>
<path d="M603.719 305.26C603.719 305.384 553.665 305.49 491.931 305.49C430.197 305.49 380.122 305.384 380.122 305.26C380.122 305.136 430.168 305.031 491.931 305.031C553.694 305.031 603.719 305.136 603.719 305.26Z" fill="#263238"/>
<path d="M480.553 280.758V295.978L485.925 292.593L491.92 295.978V280.758H480.553Z" fill="#F29188"/>
<g opacity="0.6">
<path d="M560.749 370.946C561.158 371.048 561.514 371.294 561.75 371.638C561.985 371.982 562.083 372.399 562.024 372.81C561.939 373.217 561.697 373.577 561.349 373.814C561.001 374.05 560.574 374.146 560.156 374.081C559.722 373.97 559.345 373.706 559.097 373.339C558.849 372.972 558.748 372.528 558.812 372.093C558.949 371.68 559.243 371.334 559.633 371.129C560.023 370.925 560.479 370.876 560.905 370.993" fill="white"/>
</g>
<path d="M350.097 268.431L348.433 251.132L322.369 219.082C320.636 227.015 318.7 242.328 321.298 249.98C322.271 252.886 323.556 255.791 323.245 258.833C322.943 261.641 321.298 264.266 321.483 267.085C321.649 269.187 322.865 271.046 324.043 272.809C324.209 273.245 324.46 273.644 324.782 273.983C325.103 274.322 325.489 274.594 325.917 274.784C326.345 274.974 326.806 275.078 327.275 275.09C327.743 275.102 328.209 275.021 328.646 274.853L348.257 270.979C348.886 270.933 349.473 270.653 349.902 270.194C350.179 269.649 350.248 269.023 350.097 268.431V268.431Z" fill="#263238"/>
<path d="M287.769 325.509L304.49 318.797L317.288 285.585L334.31 294.302C334.31 294.302 332.665 297.585 329.152 305.702C327.789 308.83 323.312 317.567 321.453 321.819C319.762 325.753 316.973 329.122 313.415 331.525C309.858 333.929 305.683 335.266 301.385 335.379L285.696 335.786L287.769 325.509Z" fill="#FFBF9D"/>
<path d="M279.457 319.078L276.936 316.434C276.449 316.124 275.879 315.969 275.301 315.988L267.291 316.23C266.547 316.303 265.828 316.541 265.188 316.926C264.548 317.312 264.003 317.835 263.593 318.458L260.673 323.388C260.673 323.388 258.727 326.768 258.96 327.582C259.074 327.922 259.31 328.208 259.622 328.387C259.934 328.565 260.301 328.624 260.654 328.551C260.654 328.551 260.926 330.11 261.452 330.43C261.751 330.579 262.078 330.667 262.413 330.687C262.748 330.707 263.083 330.659 263.398 330.546C263.533 330.846 263.755 331.099 264.037 331.272C264.318 331.445 264.645 331.529 264.975 331.514C265.113 331.505 265.25 331.482 265.384 331.447C266.357 331.156 266.766 329.325 266.766 329.325L270.824 328.58C270.824 328.58 276.664 332.454 278.708 334.992C280.752 337.529 286.143 335.592 286.143 335.592L288.158 326.013L279.457 319.078Z" fill="#FFBF9D"/>
<path d="M273.56 320.221C272.993 320.403 272.403 320.501 271.808 320.511C270.708 320.637 269.141 320.676 267.389 320.908L267.574 320.773C267.274 321.442 266.926 322.09 266.533 322.71C265.474 324.395 264.179 325.921 262.688 327.243C262.102 327.825 261.425 328.309 260.683 328.676C260.635 328.609 261.374 328.047 262.445 326.991C263.83 325.616 265.057 324.093 266.105 322.449C266.483 321.855 266.827 321.24 267.136 320.608L267.195 320.482H267.321C269.131 320.279 270.689 320.298 271.788 320.269C272.376 320.194 272.969 320.177 273.56 320.221V320.221Z" fill="#FF9A6C"/>
<path d="M273.744 324.027C273.272 324.255 272.759 324.39 272.235 324.424C270.94 324.602 269.623 324.556 268.342 324.289L268.625 324.124C268.458 324.616 268.263 325.098 268.041 325.567C267.318 327.071 266.295 328.413 265.033 329.509C264.545 329.998 263.958 330.378 263.311 330.623C263.311 330.565 263.904 330.11 264.79 329.248C265.933 328.122 266.877 326.812 267.583 325.374C267.798 324.922 267.989 324.459 268.158 323.989L268.235 323.785L268.44 323.834C270.191 324.135 271.975 324.2 273.744 324.027Z" fill="#FF9A6C"/>
<path d="M283.905 325.994L276.771 322.671C275.814 322.137 274.75 321.823 273.656 321.751C272.483 321.849 271.349 322.22 270.347 322.836L266.512 324.822C266.29 324.906 266.107 325.067 265.997 325.277C265.974 325.428 265.993 325.582 266.051 325.724C266.11 325.865 266.205 325.989 266.327 326.081C267.322 327.018 268.623 327.566 269.992 327.623C271.36 327.679 272.703 327.242 273.773 326.391C274.288 328.095 275.102 329.695 276.177 331.117C276.723 331.823 277.442 332.378 278.265 332.727C279.088 333.076 279.988 333.209 280.878 333.113" fill="#FFBF9D"/>
<path d="M280.878 333.132C280.878 333.132 280.82 333.132 280.693 333.19C280.503 333.239 280.306 333.262 280.11 333.258C279.361 333.269 278.621 333.093 277.959 332.744C276.933 332.197 276.065 331.396 275.438 330.42C274.66 329.174 274.033 327.841 273.569 326.449L273.929 326.546C272.767 327.507 271.27 327.973 269.764 327.844C268.528 327.773 267.35 327.296 266.416 326.488C266.249 326.344 266.096 326.185 265.958 326.013C265.871 325.906 265.807 325.781 265.772 325.647C265.737 325.514 265.73 325.374 265.754 325.238C265.824 325.016 265.977 324.828 266.182 324.715C266.357 324.608 266.494 324.541 266.649 324.463L267.535 324.008L269.277 323.107C270.363 322.477 271.519 321.976 272.722 321.616C273.877 321.411 275.068 321.591 276.109 322.129C277.083 322.565 277.939 322.991 278.757 323.378L282.552 325.219C283.031 325.42 283.488 325.67 283.915 325.964C283.418 325.813 282.934 325.625 282.465 325.403L278.572 323.698L275.915 322.516C274.952 322.027 273.853 321.87 272.791 322.071C271.635 322.434 270.524 322.928 269.482 323.543L267.739 324.444L266.854 324.909C266.552 325.064 266.231 325.209 266.221 325.364C266.211 325.519 266.435 325.877 266.727 326.11C267.028 326.357 267.354 326.571 267.7 326.749C268.36 327.088 269.082 327.292 269.822 327.35C271.202 327.485 272.579 327.074 273.657 326.207L273.9 325.994L274.007 326.303C274.448 327.656 275.039 328.956 275.769 330.178C276.349 331.116 277.155 331.895 278.114 332.444C278.951 332.93 279.91 333.169 280.878 333.132V333.132Z" fill="#FF9A6C"/>
<path d="M379.129 251.142C375.605 245.331 372.705 229.02 372.501 223.693C372.296 218.366 369.23 212.07 365.493 208.254C361.756 204.437 355.274 202.965 350.894 206.055L349.999 210.588C351.722 231.151 351.488 252.043 353.201 272.577C353.434 275.279 355.634 277.72 356.87 280.141C358.106 282.563 360.578 284.548 363.294 284.384C366.856 284.161 372.248 282.553 373.347 279.173C377.367 266.988 394.253 275.996 379.129 251.142Z" fill="#263238"/>
<path d="M366.924 210.559C364.435 207.38 361.261 204.798 357.636 203.003C354.011 201.207 350.028 200.245 345.979 200.185C341.22 200.108 339.254 201.096 335.828 202.016C332.401 202.833 329.372 204.826 327.273 207.643C324.84 211.072 322.806 214.917 322.348 219.082C321.743 223.351 321.534 227.667 321.726 231.974C321.925 236.303 323.323 240.493 325.765 244.081L336.753 246.018C342.816 246.231 348.967 246.425 354.875 245.05C360.782 243.674 366.554 240.507 369.688 235.364C374.077 228.148 372.248 217.097 366.924 210.559Z" fill="#263238"/>
<path d="M357.191 210.491L342.592 204.68L338.767 205.115C330.164 205.115 324.227 214.598 324.168 221.581C324.11 229.33 324.334 238.706 325.57 244.381C328.042 255.811 337.833 256.76 337.833 256.76C337.833 256.76 337.638 262.842 337.56 266.678L359.945 265.07L361.065 214.433C361.039 213.411 360.625 212.436 359.906 211.704C359.188 210.973 358.218 210.54 357.191 210.491V210.491Z" fill="#FFBF9D"/>
<path d="M342.69 241.679C342.623 241.263 342.453 240.871 342.193 240.538C341.934 240.205 341.594 239.943 341.206 239.776C340.818 239.609 340.393 239.542 339.972 239.582C339.551 239.621 339.146 239.767 338.796 240.004C338.323 240.365 337.956 240.845 337.731 241.395C337.507 241.945 337.435 242.545 337.521 243.132V243.132C337.774 243.485 338.099 243.779 338.475 243.997C338.851 244.214 339.269 244.348 339.702 244.391H340.11C340.793 244.385 341.449 244.126 341.95 243.665C342.217 243.412 342.422 243.101 342.55 242.757C342.679 242.413 342.726 242.044 342.69 241.679V241.679Z" fill="#FF9A6C"/>
<path d="M327.994 231.306C328.009 231.691 328.176 232.055 328.458 232.32C328.74 232.584 329.115 232.728 329.503 232.72C329.693 232.725 329.882 232.692 330.059 232.624C330.235 232.555 330.397 232.451 330.533 232.32C330.669 232.188 330.777 232.03 330.851 231.856C330.925 231.682 330.963 231.495 330.963 231.306C330.945 230.921 330.778 230.559 330.496 230.295C330.215 230.031 329.841 229.886 329.454 229.892C329.264 229.885 329.074 229.917 328.897 229.985C328.719 230.053 328.557 230.157 328.421 230.289C328.285 230.421 328.177 230.579 328.103 230.754C328.03 230.929 327.993 231.116 327.994 231.306V231.306Z" fill="#263238"/>
<path d="M326.7 225.407C326.894 225.591 327.965 224.7 329.619 224.613C331.274 224.526 332.432 225.262 332.539 225.058C332.646 224.855 332.413 224.632 331.887 224.293C331.172 223.849 330.334 223.639 329.493 223.693C328.66 223.738 327.863 224.043 327.215 224.564C326.748 224.971 326.602 225.33 326.7 225.407Z" fill="#263238"/>
<path d="M336.967 237.882C336.11 237.658 335.226 237.548 334.34 237.553C333.931 237.553 333.542 237.476 333.454 237.204C333.401 236.785 333.475 236.36 333.668 235.984C333.989 235.015 334.34 233.931 334.7 232.826C336.13 228.332 337.143 224.642 336.967 224.594C336.792 224.545 335.469 228.129 334.048 232.623C333.707 233.737 333.376 234.793 333.074 235.8C332.844 236.305 332.799 236.874 332.948 237.408C333.017 237.547 333.117 237.669 333.24 237.764C333.363 237.86 333.506 237.927 333.658 237.96C333.885 238.01 334.117 238.03 334.349 238.018C335.224 238.08 336.104 238.034 336.967 237.882V237.882Z" fill="#263238"/>
<path d="M337.726 256.711C343.183 256.499 348.473 254.782 353.007 251.752C353.007 251.752 349.318 259.966 337.668 259.501L337.726 256.711Z" fill="#FF9A6C"/>
<path d="M341.727 238.725C341.464 238.725 341.561 240.449 340.14 241.757C338.719 243.064 336.87 242.967 336.87 243.209C336.87 243.452 337.298 243.529 338.077 243.5C339.095 243.463 340.068 243.069 340.822 242.386C341.543 241.729 341.979 240.819 342.038 239.849C342.067 239.122 341.844 238.706 341.727 238.725Z" fill="#263238"/>
<path d="M327.235 219.838C327.526 220.206 328.743 219.886 330.154 219.925C331.566 219.964 332.802 220.274 333.074 219.925C333.201 219.751 333.074 219.383 332.51 219.014C331.802 218.575 330.987 218.337 330.153 218.326C329.319 218.316 328.498 218.534 327.78 218.956C327.293 219.286 327.108 219.654 327.235 219.838Z" fill="#263238"/>
<path d="M345.396 230.909C345.404 231.294 345.261 231.667 344.998 231.949C344.734 232.231 344.371 232.4 343.984 232.42C343.795 232.438 343.604 232.419 343.423 232.363C343.242 232.307 343.073 232.215 342.928 232.093C342.783 231.971 342.664 231.822 342.578 231.653C342.492 231.485 342.441 231.301 342.427 231.112C342.419 230.727 342.562 230.354 342.825 230.072C343.089 229.79 343.452 229.621 343.838 229.601C344.027 229.582 344.218 229.602 344.4 229.658C344.581 229.714 344.749 229.806 344.894 229.928C345.04 230.049 345.159 230.199 345.245 230.368C345.331 230.536 345.382 230.72 345.396 230.909V230.909Z" fill="#263238"/>
<path d="M348.325 224.787C348.14 224.991 347.002 224.177 345.406 224.206C343.809 224.235 342.651 225.058 342.486 224.865C342.32 224.671 342.583 224.429 343.08 224.051C343.763 223.56 344.582 223.292 345.425 223.286C346.26 223.266 347.079 223.514 347.761 223.993C348.238 224.361 348.432 224.7 348.325 224.787Z" fill="#263238"/>
<path d="M347.362 219.693C347.05 220.061 345.814 219.693 344.325 219.693C342.836 219.693 341.59 219.983 341.288 219.615C341.162 219.431 341.357 219.063 341.902 218.714C342.642 218.275 343.493 218.054 344.354 218.075C345.214 218.075 346.056 218.313 346.787 218.763C347.323 219.15 347.459 219.518 347.362 219.693Z" fill="#263238"/>
<path d="M359.021 233.766C358.973 232.904 359.858 230.86 360.705 230.647C362.963 230.173 367.07 230.134 367.42 235.877C367.907 243.733 359.887 242.599 359.858 242.377C359.829 242.154 359.138 236.73 359.021 233.766Z" fill="#FFBF9D"/>
<path d="M361.853 239.374C361.853 239.374 361.999 239.461 362.243 239.548C362.571 239.677 362.936 239.677 363.264 239.548C364.082 239.19 364.705 237.834 364.656 236.41C364.633 235.735 364.46 235.074 364.15 234.473C364.057 234.237 363.908 234.025 363.717 233.857C363.526 233.689 363.297 233.568 363.05 233.504C362.89 233.474 362.724 233.5 362.58 233.578C362.436 233.656 362.324 233.78 362.262 233.931C362.165 234.163 362.262 234.318 362.184 234.328C362.106 234.337 362.009 234.211 362.058 233.882C362.084 233.684 362.181 233.502 362.33 233.369C362.538 233.193 362.807 233.105 363.08 233.127C363.408 233.17 363.719 233.296 363.985 233.492C364.251 233.689 364.462 233.95 364.598 234.25C364.976 234.909 365.183 235.651 365.201 236.41C365.201 237.999 364.53 239.529 363.41 239.926C363.201 239.998 362.979 240.024 362.759 240.002C362.539 239.981 362.326 239.912 362.135 239.8C361.882 239.558 361.834 239.374 361.853 239.374Z" fill="#FF9A6C"/>
<path d="M361.026 230.657L359.021 232.72C350.359 224.477 333.443 203.827 334.388 205.057C338.333 203.588 342.587 203.128 346.758 203.721C353.191 204.806 365.405 208.012 365.25 215.576C365.094 223.141 361.026 230.657 361.026 230.657Z" fill="#263238"/>
<path d="M372.492 228.942C372.474 228.786 372.435 228.633 372.375 228.487C372.231 228.06 372.052 227.645 371.839 227.247C371.02 225.795 369.894 224.536 368.54 223.557C366.525 222.123 364.276 221.045 361.893 220.371C359.255 219.518 356.277 218.85 353.357 217.61C350.604 216.461 347.991 215.002 345.571 213.261C343.593 211.819 341.752 210.197 340.072 208.418C338.936 207.231 337.873 205.976 336.89 204.66C336.559 204.224 336.296 203.866 336.092 203.585C336.008 203.452 335.91 203.329 335.8 203.217C335.861 203.36 335.936 203.496 336.023 203.624C336.189 203.885 336.423 204.273 336.753 204.757C337.701 206.115 338.739 207.41 339.858 208.631C341.531 210.431 343.373 212.069 345.357 213.523C347.79 215.3 350.426 216.783 353.211 217.939C356.024 219.001 358.889 219.919 361.795 220.69C364.144 221.336 366.367 222.367 368.375 223.741C369.722 224.68 370.859 225.887 371.713 227.286C372.277 228.322 372.453 228.952 372.492 228.942Z" fill="#455A64"/>
<path d="M370.193 230.173C370.22 229.586 370.117 229.001 369.892 228.458C369.296 226.957 368.262 225.668 366.923 224.758C364.92 223.477 362.68 222.604 360.334 222.191C357.522 221.633 354.78 220.765 352.159 219.605C349.546 218.423 347.093 216.916 344.859 215.121C343.036 213.675 341.36 212.052 339.857 210.278C338.847 209.065 337.914 207.79 337.064 206.462C336.801 206.016 336.577 205.658 336.402 205.367C336.227 205.077 336.158 204.99 336.139 204.999C336.191 205.139 336.253 205.275 336.324 205.406L336.937 206.549C337.74 207.904 338.641 209.199 339.633 210.423C341.121 212.255 342.794 213.93 344.626 215.421C346.873 217.247 349.346 218.781 351.984 219.983C354.633 221.153 357.409 222.018 360.256 222.56C362.561 222.951 364.768 223.779 366.758 225C368.075 225.864 369.112 227.089 369.746 228.526C369.948 229.059 370.098 229.61 370.193 230.173Z" fill="#455A64"/>
<path d="M354.272 233.563C354.235 235.611 354.81 237.625 355.924 239.349C357.037 241.073 358.639 242.429 360.527 243.247C362.415 244.065 364.504 244.308 366.531 243.944C368.557 243.581 370.43 242.628 371.912 241.205C373.395 239.783 374.42 237.955 374.859 235.953C375.297 233.951 375.13 231.864 374.377 229.957C373.625 228.049 372.321 226.407 370.63 225.237C368.94 224.067 366.939 223.421 364.88 223.383C362.117 223.334 359.448 224.378 357.458 226.287C355.469 228.196 354.323 230.813 354.272 233.563V233.563Z" fill="#F29188"/>
<path d="M364.851 223.412C364.851 223.412 364.335 202.035 345.386 199.246C345.386 199.246 337.853 198.326 334.31 202.471C334.31 202.471 339.41 200.399 344.306 201.667C347.537 202.51 359.323 207.721 359.878 225.126L364.744 227.218L364.851 223.412Z" fill="#F29188"/>
<path d="M357.279 233.717C357.279 233.717 357.279 233.717 357.279 233.592C357.279 233.466 357.279 233.388 357.279 233.233C357.292 233.038 357.314 232.844 357.347 232.652C357.386 232.387 357.441 232.125 357.512 231.868C357.696 231.162 357.981 230.487 358.359 229.863C358.867 229.037 359.528 228.314 360.306 227.732C361.242 227.024 362.332 226.543 363.488 226.327C364.819 226.091 366.188 226.208 367.459 226.666C368.156 226.905 368.813 227.248 369.406 227.683C369.707 227.907 369.993 228.149 370.262 228.41C370.527 228.685 370.774 228.976 371.002 229.281C371.947 230.57 372.461 232.122 372.471 233.717C372.456 234.523 372.325 235.322 372.082 236.09C371.833 236.83 371.468 237.526 371.002 238.154C370.774 238.459 370.527 238.75 370.262 239.025C369.993 239.286 369.707 239.528 369.406 239.752C368.815 240.194 368.158 240.541 367.459 240.778C366.272 241.21 364.994 241.338 363.744 241.15C362.494 240.962 361.312 240.465 360.306 239.703C359.528 239.121 358.867 238.398 358.359 237.572C357.98 236.949 357.694 236.273 357.512 235.567C357.44 235.31 357.385 235.048 357.347 234.783C357.314 234.591 357.291 234.397 357.279 234.202V233.843C357.279 233.756 357.279 233.717 357.279 233.717C357.279 233.717 357.279 233.717 357.279 233.843V234.202C357.278 234.4 357.295 234.597 357.328 234.793C357.358 235.06 357.406 235.326 357.474 235.587C357.644 236.307 357.926 236.997 358.31 237.631C358.813 238.477 359.474 239.22 360.257 239.819C361.279 240.606 362.485 241.121 363.761 241.317C365.038 241.514 366.344 241.385 367.556 240.943C368.254 240.697 368.91 240.348 369.503 239.907C369.811 239.677 370.103 239.428 370.379 239.161C370.655 238.884 370.909 238.586 371.138 238.27C371.618 237.625 371.992 236.909 372.248 236.149C372.775 234.577 372.775 232.877 372.248 231.306C371.992 230.545 371.618 229.829 371.138 229.185C370.904 228.872 370.65 228.575 370.379 228.293C370.103 228.029 369.811 227.784 369.503 227.557C368.913 227.11 368.256 226.757 367.556 226.511C366.257 226.044 364.855 225.934 363.498 226.192C362.317 226.408 361.206 226.903 360.257 227.635C359.474 228.234 358.813 228.977 358.31 229.824C357.928 230.458 357.645 231.148 357.474 231.868C357.407 232.129 357.359 232.394 357.328 232.662C357.295 232.857 357.278 233.055 357.279 233.253V233.563C357.269 233.679 357.269 233.717 357.279 233.717Z" fill="#263238"/>
<path d="M362.457 230.599C362.457 230.599 363.781 232.052 365.503 233.766C367.226 235.48 368.647 236.836 368.686 236.798C368.725 236.759 367.362 235.335 365.64 233.63C363.917 231.926 362.496 230.56 362.457 230.599Z" fill="#263238"/>
<path d="M363.654 233.301C363.988 233.763 364.373 234.185 364.802 234.56C365.186 234.977 365.617 235.347 366.087 235.664C365.755 235.205 365.369 234.785 364.939 234.415C364.557 233.994 364.125 233.62 363.654 233.301V233.301Z" fill="#263238"/>
<path d="M370.818 340.6L324.101 347.38C306.582 352.319 288.09 353.772 268.781 352.097L339.06 384.66L367.285 385.096C369.462 384.804 371.53 383.968 373.295 382.666C375.06 381.363 376.464 379.637 377.377 377.648C385.913 359.38 378.497 344.396 378.497 344.396C378.497 344.396 374.954 342.672 370.818 340.6Z" fill="#263238"/>
<path d="M337.541 264.731L360.218 262.29L364.374 266.048L348.179 275.521L341.035 279.211L333.979 277.071L331.74 272.887L337.541 264.731Z" fill="#FFBF9D"/>
<path d="M306.961 292.21C306.961 292.21 314.076 278.65 315.838 275.666C317.999 272.358 320.952 269.636 324.431 267.743L337.541 264.731C337.541 264.731 336.179 271.259 344.354 271.715C354.719 272.286 361.162 262.387 361.162 262.387C361.162 262.387 372.997 263.598 376.267 264.973C379.538 266.349 388.774 270.184 390.136 282.408L393.299 302.37L368.296 304.307L368.647 330.885L358.019 339.534C358.019 339.534 327.517 349.985 325.57 350.673C324.597 351.002 324.869 338.081 322.65 327.049L318.534 317.102C316.868 313.125 315.882 308.898 315.614 304.598C315.458 301.76 315.536 299.619 315.536 299.619C315.536 299.619 309.151 297.401 306.961 292.21Z" fill="#F2DF80"/>
<path d="M326.66 340.203L368.579 327.689L368.277 304.268L389.621 302.651C389.621 302.651 387.917 314.777 387.674 320.996C387.314 329.945 382.993 342.44 380.092 345.094C377.192 347.748 325.59 350.634 325.59 350.634L326.66 340.203Z" fill="#FFBF9D"/>
<path d="M302.894 347.564C303.059 347.846 303.304 348.073 303.599 348.216C303.893 348.359 304.224 348.412 304.549 348.368C304.688 348.342 304.825 348.303 304.957 348.251C305.882 347.874 305.639 345.975 305.639 345.975L310.106 344.89C310.106 344.89 316.267 348.203 318.554 350.547C320.841 352.891 326.019 350.45 326.019 350.45L327.119 340.764L318.262 333.878C318.262 333.878 318.807 334.285 318.126 332.909C317.444 331.534 314.865 332.289 314.865 332.289C314.408 331.621 312.675 331.505 312.675 331.505L305.454 332.909C304.718 333.051 304.023 333.356 303.42 333.8C302.817 334.244 302.321 334.817 301.97 335.476L299.264 340.571C299.264 340.571 297.911 344.193 298.232 344.987C298.375 345.319 298.636 345.586 298.964 345.738C299.293 345.89 299.667 345.916 300.013 345.811C300.013 345.811 300.549 348.087 301.162 348.116C301.784 348.04 302.385 347.846 302.933 347.544L302.894 347.564Z" fill="#FFBF9D"/>
<path d="M317.881 339.486C317.881 339.563 316.908 339.554 315.351 339.738C313.341 339.99 311.376 340.518 309.511 341.307C308.501 341.747 307.525 342.262 306.592 342.847C305.755 343.408 304.859 343.883 304.645 344.542C304.592 344.686 304.579 344.842 304.606 344.994C304.634 345.145 304.701 345.287 304.801 345.404C304.949 345.6 305.152 345.749 305.385 345.83C305.597 345.87 305.815 345.87 306.027 345.83C306.027 345.83 305.823 346.053 305.336 345.966C305.05 345.9 304.792 345.747 304.596 345.53C304.459 345.381 304.362 345.199 304.316 345.002C304.27 344.805 304.276 344.6 304.334 344.406C304.496 343.972 304.784 343.594 305.161 343.321C305.54 343.031 305.939 342.73 306.377 342.45C309.083 340.683 312.193 339.624 315.419 339.37C316.241 339.289 317.071 339.328 317.881 339.486V339.486Z" fill="#FF9A6C"/>
<path d="M318.747 344.077C318.747 344.212 315.779 344.319 312.149 344.813C308.518 345.307 305.618 345.975 305.579 345.84C306.17 345.559 306.795 345.357 307.438 345.239C308.967 344.857 310.517 344.563 312.08 344.358C313.642 344.14 315.215 344.014 316.791 343.98C317.445 343.925 318.103 343.957 318.747 344.077V344.077Z" fill="#FF9A6C"/>
<path d="M302.922 347.38C302.838 347.132 302.786 346.875 302.766 346.614C302.665 345.908 302.61 345.197 302.601 344.484C302.584 343.991 302.614 343.498 302.688 343.011C302.776 342.432 302.978 341.876 303.282 341.374C303.913 340.219 304.766 339.199 305.793 338.372C306.809 337.544 307.94 336.865 309.151 336.357C310.153 335.982 311.2 335.737 312.265 335.631C313.16 335.534 313.89 335.495 314.396 335.476C314.654 335.437 314.917 335.437 315.175 335.476C314.212 335.691 313.237 335.847 312.255 335.941C311.229 336.089 310.223 336.356 309.258 336.735C308.102 337.25 307.022 337.918 306.046 338.721C305.055 339.505 304.226 340.472 303.603 341.568C303.099 342.452 302.849 343.458 302.883 344.474C302.892 346.266 303.019 347.37 302.922 347.38Z" fill="#FF9A6C"/>
<path d="M312.422 333.403C312.422 333.471 311.341 333.577 309.609 333.916C307.876 334.255 305.278 334.633 303.925 337.045C302.6 338.882 301.529 340.889 300.742 343.011C300.496 343.918 300.337 344.845 300.266 345.781C300.187 345.534 300.154 345.275 300.168 345.016C300.151 344.307 300.24 343.598 300.431 342.915C301.148 340.71 302.22 338.637 303.604 336.774C303.969 336.205 304.407 335.688 304.908 335.234C305.395 334.813 305.956 334.484 306.563 334.265C307.552 333.927 308.572 333.684 309.609 333.539C310.537 333.374 311.482 333.328 312.422 333.403V333.403Z" fill="#FF9A6C"/>
<path d="M316.84 349.123C316.676 349.041 316.523 348.94 316.382 348.823L315.078 347.941C313.455 346.878 311.771 345.908 310.036 345.036H310.134L305.686 346.15L305.822 345.946C305.866 346.313 305.866 346.684 305.822 347.05C305.798 347.46 305.649 347.852 305.394 348.174C305.242 348.339 305.041 348.452 304.82 348.493C304.617 348.566 304.402 348.596 304.187 348.581C303.746 348.549 303.332 348.359 303.019 348.048C302.937 347.971 302.862 347.887 302.795 347.796L302.747 347.728L303.019 347.806L302.883 347.874L302.318 348.125C302.118 348.205 301.913 348.273 301.705 348.329C301.597 348.359 301.486 348.379 301.374 348.387C301.233 348.416 301.087 348.399 300.956 348.339C300.74 348.202 300.568 348.007 300.46 347.777C300.362 347.583 300.265 347.38 300.187 347.176C300.025 346.764 299.886 346.344 299.769 345.917L300.051 346.082C299.75 346.172 299.431 346.178 299.127 346.099C298.823 346.021 298.547 345.86 298.328 345.636C298.097 345.398 297.959 345.085 297.939 344.755C297.941 344.458 297.974 344.163 298.036 343.873C298.282 342.745 298.607 341.634 299.009 340.551L300.46 337.829C300.761 337.248 301.063 336.677 301.374 336.105C301.636 335.513 301.963 334.951 302.348 334.43C302.779 333.926 303.309 333.514 303.905 333.219C304.486 332.956 305.102 332.78 305.735 332.696L312.547 331.388H312.606C313.021 331.422 313.432 331.497 313.832 331.611C314.262 331.706 314.65 331.933 314.942 332.26L314.679 332.202C315.042 332.011 315.446 331.911 315.857 331.911C316.267 331.911 316.671 332.011 317.034 332.202C317.675 332.598 318.141 333.221 318.338 333.946L318.27 333.858L324.402 338.546L326.056 339.844C326.255 339.986 326.441 340.145 326.611 340.319C326.394 340.207 326.188 340.074 325.998 339.922L324.285 338.701L318.066 334.13V334.071C317.89 333.441 317.484 332.899 316.927 332.551C316.62 332.41 316.284 332.343 315.946 332.355C315.608 332.367 315.277 332.457 314.981 332.619L314.825 332.696L314.718 332.56C314.479 332.314 314.17 332.145 313.832 332.076C313.456 331.976 313.072 331.912 312.684 331.882H312.742L305.929 333.219C305.337 333.301 304.761 333.467 304.216 333.713C303.679 333.982 303.202 334.358 302.815 334.817C302.429 335.31 302.102 335.847 301.842 336.415C301.54 336.977 301.228 337.558 300.927 338.139C300.43 339.108 299.953 339.989 299.477 340.851C299.075 341.912 298.75 342.999 298.503 344.106C298.447 344.364 298.418 344.627 298.416 344.89C298.433 345.111 298.526 345.32 298.678 345.481C298.841 345.643 299.044 345.758 299.267 345.814C299.49 345.871 299.723 345.866 299.944 345.801L300.168 345.752L300.226 345.966C300.32 346.37 300.44 346.768 300.586 347.157C300.686 347.521 300.877 347.854 301.141 348.125C301.202 348.134 301.264 348.134 301.326 348.125L301.598 348.067C301.787 348.022 301.973 347.964 302.153 347.893L302.688 347.661L302.825 347.593L303.097 347.67V347.719C303.144 347.792 303.2 347.861 303.263 347.922C303.511 348.163 303.833 348.313 304.177 348.348C304.346 348.354 304.513 348.331 304.674 348.28C304.825 348.255 304.964 348.184 305.073 348.077C305.409 347.49 305.53 346.805 305.413 346.14V345.975H305.569L310.036 344.929H310.095H310.144C311.878 345.833 313.55 346.852 315.146 347.98C315.701 348.377 316.119 348.707 316.402 348.949C316.552 348.996 316.698 349.055 316.84 349.123V349.123Z" fill="#FF9A6C"/>
<path d="M295.059 355.157C295.059 355.157 265.481 345.917 256.187 342.915C240.196 337.752 229.724 342.973 226.424 348.668C222.142 356.058 232.41 370.461 236.371 373.773C248.05 383.585 268.197 384.912 268.197 384.912L340.481 384.776L319.38 356.3L295.059 355.157Z" fill="#263238"/>
<path d="M299.478 368.514C287.432 369.89 275.231 368.224 264.002 363.671C262.079 362.806 260.099 362.071 258.075 361.472C256.083 360.968 254.016 360.824 251.973 361.046C251.161 361.067 250.361 361.25 249.621 361.582C248.88 361.915 248.214 362.391 247.661 362.983C246.221 364.921 246.961 367.565 247.759 369.763C248.732 372.388 249.705 375.081 251.515 377.183C253.657 379.633 256.771 381.057 259.895 382.026C265.998 383.963 272.441 384.486 278.835 384.738L300.801 383.546L299.478 368.514Z" fill="#E0E0E0"/>
<path d="M257.062 361.521C257.062 361.521 257.218 361.715 257.403 362.112C257.652 362.673 257.848 363.257 257.987 363.855C258.457 365.858 258.372 367.949 257.741 369.908C257.11 371.866 255.957 373.617 254.405 374.974C253.94 375.38 253.438 375.744 252.906 376.059C252.719 376.186 252.512 376.281 252.293 376.34C252.244 376.272 253.081 375.788 254.181 374.732C255.617 373.366 256.688 371.664 257.297 369.782C257.905 367.899 258.032 365.895 257.666 363.952C257.393 362.383 256.994 361.55 257.062 361.521Z" fill="#263238"/>
<path d="M370.535 353.356C368.822 348.513 368.53 341.394 357.941 337.975C347.352 334.556 339.342 341.113 333.911 343.389C328.481 345.665 298.718 361.899 298.718 361.899C298.718 361.899 293.112 371.836 294.709 376.233C296.305 380.631 303.555 384.951 303.555 384.951H336.822C345.406 384.951 361.377 384.67 361.377 384.67C363.507 381.185 365.419 377.571 367.1 373.851L367.392 372.427C367.392 371.294 372.248 358.199 370.535 353.356Z" fill="#263238"/>
<path d="M352.101 378.51C352.061 378.677 351.977 378.831 351.857 378.955C351.531 379.32 351.161 379.645 350.758 379.924C349.279 380.943 347.704 381.819 346.057 382.539C344.929 383.066 343.768 383.522 342.582 383.905C341.211 384.319 339.808 384.62 338.388 384.805C335.154 385.127 331.904 385.253 328.655 385.183C321.735 385.299 315.467 385.551 310.922 385.503C308.645 385.503 306.805 385.396 305.54 385.261C305.053 385.224 304.568 385.156 304.09 385.057C303.919 385.045 303.752 385.005 303.593 384.941C303.593 384.893 304.284 385.018 305.54 385.086C306.795 385.154 308.645 385.202 310.912 385.173C315.438 385.173 321.706 384.834 328.635 384.718C331.884 384.788 335.133 384.675 338.368 384.379C339.768 384.212 341.151 383.93 342.504 383.537C343.676 383.171 344.826 382.741 345.95 382.248C347.597 381.556 349.182 380.726 350.69 379.769C351.096 379.511 351.474 379.213 351.819 378.878C352.023 378.665 352.072 378.49 352.101 378.51Z" fill="#263238"/>
<path d="M303.555 384.96C303.555 384.96 303.4 384.893 303.108 384.728C302.816 384.563 302.407 384.311 301.872 383.963C300.308 382.946 298.845 381.785 297.502 380.495C296.52 379.565 295.684 378.494 295.02 377.318C294.337 375.846 294.166 374.19 294.533 372.611C295.342 368.837 296.696 365.199 298.553 361.811V361.763H298.601C304.042 358.78 310.28 355.38 317.093 351.729C320.509 349.908 324.072 348.019 327.799 346.12C329.648 345.152 331.517 344.183 333.483 343.331C335.449 342.479 337.298 341.394 339.254 340.425C341.953 338.957 344.846 337.875 347.848 337.21C349.322 336.916 350.823 336.78 352.325 336.803C353.797 336.851 355.259 337.059 356.686 337.423C359.447 338.101 362.041 339.333 364.306 341.045C365.364 341.912 366.297 342.919 367.08 344.038C367.807 345.133 368.407 346.306 368.871 347.535C369.328 348.736 369.669 349.956 370.01 351.128C370.407 352.279 370.732 353.453 370.983 354.644C371.132 356.919 370.942 359.204 370.418 361.424C369.98 363.526 369.445 365.502 368.939 367.342C368.666 368.252 368.404 369.143 368.16 369.996C367.897 370.804 367.677 371.625 367.498 372.456V372.456C367.391 372.998 367.294 373.425 367.207 373.88C366.303 376.786 365.017 379.561 363.382 382.132C362.81 383.047 362.138 383.894 361.377 384.66C361.412 384.597 361.454 384.538 361.503 384.486L361.892 384.011C362.393 383.392 362.858 382.745 363.284 382.074C364.864 379.49 366.106 376.717 366.983 373.822V373.822C367.528 373.376 367.421 372.931 367.265 372.398C367.427 371.54 367.642 370.692 367.907 369.86L368.666 367.197C369.173 365.356 369.688 363.39 370.097 361.298C370.602 359.118 370.783 356.876 370.632 354.644C370.378 353.476 370.053 352.325 369.659 351.196C369.318 350.014 368.978 348.813 368.511 347.631C368.056 346.434 367.469 345.29 366.759 344.222C365.997 343.136 365.09 342.158 364.063 341.316C361.847 339.644 359.31 338.444 356.608 337.791C353.785 337.054 350.828 336.988 347.975 337.597C345.008 338.247 342.15 339.317 339.488 340.774C337.542 341.743 335.673 342.837 333.648 343.68C331.624 344.522 329.843 345.51 327.994 346.45C324.295 348.339 320.733 350.227 317.288 352.038L298.796 362.054L298.864 361.986C297 365.322 295.636 368.911 294.815 372.64C294.445 374.162 294.592 375.763 295.234 377.192C295.877 378.35 296.684 379.41 297.628 380.34C298.955 381.632 300.391 382.808 301.92 383.856L303.127 384.66L303.555 384.96Z" fill="#263238"/>
<path d="M357.697 372.679C357.697 372.679 367.615 373.86 366.729 378.684C365.843 383.507 362.612 385.135 362.612 385.135L335.672 385.193C335.672 385.193 351.76 384.079 357.697 372.679Z" fill="#E0E0E0"/>
<path d="M358.661 370.335C358.659 370.806 358.556 371.272 358.359 371.701C357.986 372.777 357.444 373.787 356.753 374.693C355.816 376.021 354.496 377.035 352.967 377.599C354.215 376.667 355.36 375.605 356.383 374.432C357.26 373.134 358.022 371.763 358.661 370.335V370.335Z" fill="#263238"/>
<path d="M355.245 372.233C355.258 373.445 354.92 374.636 354.272 375.662C353.789 376.769 353.049 377.745 352.111 378.51C352.004 378.422 352.987 377.173 353.863 375.459C354.739 373.744 355.089 372.214 355.245 372.233Z" fill="#263238"/>
<path d="M367.898 383.788C367.82 383.788 368.462 382.529 369.241 380.456C371.269 375.039 371.937 369.21 371.187 363.477C370.895 361.288 370.555 359.952 370.633 359.932C370.782 360.222 370.887 360.532 370.944 360.853C371.186 361.699 371.374 362.559 371.509 363.429C372.468 369.213 371.794 375.148 369.562 380.573C369.232 381.393 368.852 382.192 368.423 382.965C368.284 383.26 368.107 383.537 367.898 383.788Z" fill="#455A64"/>
<g opacity="0.3">
<path d="M362.262 370.073C362.184 369.424 361.931 368.659 361.288 368.524C360.646 368.388 359.965 369.269 359.643 369.996C356.227 377.861 345.045 383.982 336.421 384.776C340.587 384.779 344.746 384.455 348.86 383.808C352.368 383.276 355.658 381.78 358.359 379.488C359.695 378.324 360.742 376.869 361.419 375.236C362.096 373.603 362.384 371.836 362.262 370.073V370.073Z" fill="black"/>
</g>
<path d="M296.626 359.38C294.986 358.922 293.39 358.319 291.857 357.579C290.265 356.973 288.731 356.228 287.273 355.351C288.915 355.802 290.512 356.406 292.042 357.153C293.633 357.758 295.167 358.503 296.626 359.38V359.38Z" fill="#263238"/>
<g opacity="0.2">
<path d="M306.232 355.235C293.404 352.794 280.528 350.624 267.603 348.726L257.977 351.729C260.673 356.717 266.007 359.894 271.545 361.221C277.082 362.547 282.873 362.189 288.547 361.695C294.796 361.124 301.2 360.252 306.65 357.143C307.059 356.901 307.526 356.542 307.477 356.068C307.429 355.593 306.767 355.341 306.232 355.235Z" fill="black"/>
</g>
<path d="M243.066 317.199L259.223 352.784C259.552 353.507 260.081 354.121 260.748 354.555C261.415 354.989 262.192 355.225 262.989 355.235L310.134 355.845L316.071 352.658L306.766 351.98L292.275 317.383C292.05 316.844 291.671 316.382 291.185 316.057C290.698 315.731 290.126 315.556 289.54 315.552L244.371 315.204C244.133 315.202 243.898 315.26 243.688 315.373C243.479 315.485 243.301 315.648 243.171 315.847C243.041 316.045 242.963 316.273 242.945 316.509C242.927 316.746 242.969 316.983 243.066 317.199V317.199Z" fill="#E0E0E0"/>
<path d="M243.067 317.199C242.986 317.07 242.936 316.924 242.921 316.773C242.894 316.577 242.908 316.377 242.963 316.186C243.017 315.996 243.111 315.819 243.239 315.667C243.366 315.514 243.524 315.39 243.702 315.302C243.88 315.214 244.075 315.164 244.274 315.155H248.42L267.34 315.213L280.479 315.281H287.827H289.774C290.476 315.334 291.142 315.613 291.672 316.075C292.171 316.555 292.543 317.151 292.752 317.809L293.521 319.64L307.03 351.835L306.806 351.67L315.789 352.329H316.11L317.015 352.397L316.217 352.823L310.271 356.01H310.212H310.144L274.367 355.603L266.386 355.487C265.092 355.487 263.846 355.487 262.552 355.409C261.91 355.339 261.291 355.129 260.739 354.794C260.187 354.459 259.716 354.008 259.36 353.472C257.248 349.065 255.466 344.987 253.792 341.258C250.444 333.82 247.758 327.824 245.88 323.659C244.975 321.596 244.264 319.998 243.768 318.884L243.233 317.644C243.116 317.364 243.067 317.209 243.067 317.209C243.067 317.209 243.145 317.344 243.281 317.625L243.865 318.845C244.371 319.95 245.111 321.538 246.065 323.582C248.011 327.727 250.717 333.703 254.114 341.113C255.827 344.803 257.656 348.949 259.71 353.24C260.036 353.729 260.467 354.141 260.972 354.446C261.477 354.75 262.043 354.94 262.63 355.002C263.837 355.06 265.141 355.002 266.425 355.06L274.406 355.157L310.164 355.593H310.037L315.974 352.407L316.081 352.9H315.76L306.777 352.242H306.582L306.524 352.097L293.064 319.862L292.304 318.032C292.119 317.435 291.784 316.895 291.331 316.463C290.88 316.069 290.314 315.831 289.716 315.785H287.769L280.421 315.717L267.272 315.591L248.362 315.368L245.442 315.32H244.264C243.947 315.334 243.644 315.457 243.408 315.669C243.249 315.812 243.125 315.989 243.046 316.187C242.966 316.385 242.934 316.599 242.95 316.811C242.975 316.945 243.014 317.074 243.067 317.199V317.199Z" fill="#263238"/>
<path d="M305.385 355.787C305.292 355.669 305.217 355.538 305.161 355.399L304.635 354.247L302.689 349.985C301.112 346.372 298.971 341.374 296.674 335.825C294.377 330.275 292.333 325.219 290.922 321.548C290.221 319.707 289.667 318.216 289.297 317.17C289.141 316.695 289.005 316.298 288.888 315.969C288.827 315.834 288.791 315.69 288.781 315.543C288.859 315.668 288.925 315.801 288.976 315.94C289.112 316.259 289.277 316.637 289.472 317.112C289.91 318.197 290.504 319.649 291.233 321.422C292.761 325.122 294.815 330.139 297.073 335.65C299.331 341.161 301.433 346.159 302.913 349.859C303.643 351.632 304.236 353.094 304.674 354.179C304.859 354.644 305.005 355.041 305.132 355.361C305.231 355.493 305.316 355.636 305.385 355.787V355.787Z" fill="#263238"/>
<path d="M276.128 334.449C276.13 334.906 275.996 335.353 275.742 335.733C275.488 336.114 275.126 336.411 274.703 336.587C274.279 336.762 273.813 336.809 273.362 336.72C272.912 336.632 272.499 336.412 272.174 336.089C271.849 335.766 271.629 335.354 271.54 334.906C271.45 334.458 271.497 333.994 271.674 333.572C271.85 333.151 272.149 332.791 272.531 332.538C272.913 332.286 273.363 332.152 273.822 332.154C274.433 332.154 275.02 332.395 275.453 332.826C275.885 333.256 276.128 333.84 276.128 334.449V334.449Z" fill="white"/>
<path d="M322.038 277.216C322.106 277.216 321.425 278.524 320.471 280.626C319.237 283.373 318.202 286.205 317.376 289.101C316.572 292.001 315.986 294.957 315.624 297.944C315.342 300.239 315.264 301.663 315.176 301.663C315.124 301.343 315.107 301.018 315.128 300.694C315.128 300.045 315.128 299.106 315.264 297.944C315.793 291.884 317.443 285.973 320.13 280.509C320.656 279.463 321.103 278.64 321.444 278.078C321.597 277.763 321.798 277.472 322.038 277.216Z" fill="#263238"/>
<path d="M393.28 302.38C393.113 302.432 392.939 302.458 392.764 302.457L391.256 302.612L385.659 303.077L366.496 304.511H366.253V304.268C366.097 301.731 365.922 299.057 365.746 296.307C365.474 291.522 365.25 286.96 365.172 282.805C364.924 279.072 365.776 275.349 367.625 272.092C368.887 269.906 370.751 268.125 372.997 266.959C373.621 266.651 374.272 266.405 374.944 266.223C375.17 266.149 375.401 266.091 375.635 266.049C375.635 266.116 374.662 266.32 373.134 267.124C370.937 268.331 369.123 270.126 367.897 272.305C366.128 275.521 365.33 279.177 365.6 282.834C365.698 286.979 365.941 291.551 366.214 296.316C366.389 299.067 366.545 301.74 366.71 304.268L366.447 304.046L385.611 302.787L391.226 302.457L392.735 302.399C392.915 302.372 393.098 302.366 393.28 302.38V302.38Z" fill="#263238"/>
<path d="M346.281 318.642C345.988 318.581 345.706 318.477 345.444 318.332C345.107 318.207 344.781 318.051 344.471 317.867C344.065 317.651 343.672 317.412 343.294 317.15C342.292 316.472 341.365 315.689 340.529 314.816C339.52 313.736 338.636 312.547 337.892 311.271C337.165 309.982 336.59 308.614 336.179 307.194C335.854 306.036 335.652 304.848 335.576 303.649C335.552 303.187 335.552 302.725 335.576 302.263C335.577 301.917 335.603 301.57 335.653 301.227C335.66 300.926 335.715 300.628 335.819 300.346C335.916 300.346 335.751 301.615 335.955 303.619C336.075 304.788 336.306 305.943 336.646 307.068C337.072 308.441 337.643 309.766 338.349 311.019C339.075 312.262 339.926 313.427 340.89 314.497C341.706 315.365 342.602 316.156 343.566 316.86C345.152 318.051 346.32 318.555 346.281 318.642Z" fill="#263238"/>
<path d="M374.71 249.835L360.257 246.512C360.257 256.663 357.425 260.741 355.031 266.087C352.637 271.434 350.593 277.458 352.315 283.057C352.938 285.091 354.262 287.115 356.286 287.696C357.741 288.023 359.266 287.784 360.549 287.028C363.469 285.478 365.347 282.495 366.613 279.454C367.878 276.412 368.686 273.177 370.175 270.233C371.43 267.734 373.182 265.477 374.116 262.843C375.051 260.208 376.55 253.089 374.71 249.835Z" fill="#263238"/>
<path d="M511.937 157.195C514.671 152.759 518.994 149.521 524.034 148.133L523.727 147.758C525.892 147.753 527.979 148.559 529.574 150.016C531.168 151.473 532.153 153.474 532.333 155.62C532.28 157.384 532.065 159.138 531.69 160.862C531.322 162.593 531.598 164.398 532.465 165.942C532.986 166.724 533.752 167.323 534.323 168.075C534.639 168.425 534.855 168.853 534.948 169.313C535.041 169.774 535.009 170.252 534.854 170.696C534.344 171.793 532.812 172.017 531.669 171.803C530.515 171.439 529.306 171.281 528.096 171.336C528.414 171.75 528.643 172.225 528.768 172.73C528.892 173.236 528.91 173.763 528.82 174.276C528.73 174.789 528.534 175.278 528.244 175.712C527.955 176.146 527.578 176.515 527.138 176.797C526.697 177.079 526.203 177.267 525.686 177.349C525.169 177.431 524.641 177.406 524.134 177.274C523.628 177.143 523.154 176.909 522.743 176.586C522.332 176.263 521.993 175.859 521.747 175.4C521.723 176.459 521.327 177.477 520.628 178.277C519.928 179.077 518.97 179.608 517.919 179.778C516.862 179.911 515.789 179.786 514.791 179.414C513.794 179.043 512.902 178.435 512.192 177.645C510.796 176.036 509.855 174.087 509.467 171.996C508.382 166.929 509.265 161.641 511.937 157.195V157.195Z" fill="#263238"/>
<path d="M489.204 139.133C489.587 138.512 490.14 138.012 490.798 137.694C491.457 137.375 492.193 137.251 492.92 137.335C494.358 137.533 495.744 138.006 497.003 138.726C496.963 136.785 497.31 134.855 498.024 133.048C498.4 132.157 499.03 131.394 499.834 130.853C500.639 130.311 501.585 130.015 502.556 130C503.388 130.137 504.181 130.446 504.885 130.908C505.588 131.37 506.186 131.975 506.639 132.682C507.538 134.089 508.589 135.394 509.773 136.573C513.111 139.366 518.246 138.361 522.156 140.281C526.065 142.201 528.444 148.042 526.678 152.136C519.042 152.908 511.366 153.69 504.047 156.118C500.106 157.429 495.778 159.217 491.981 157.53C490.796 157.002 489.777 156.164 489.031 155.107C488.285 154.05 487.84 152.812 487.743 151.523C487.646 150.235 487.9 148.945 488.479 147.788C489.058 146.632 489.94 145.653 491.031 144.954C489.664 143.196 488.183 141.002 489.204 139.133Z" fill="#263238"/>
<path d="M493.511 150.531C495.44 145.086 503.015 141.236 508.405 143.42L525.452 151.902L524.543 154.869L512.937 191.511C512.937 191.511 508.006 203.001 498.084 199.476C489.203 196.266 492.388 186.879 492.388 186.879L494.654 179.991C494.654 179.991 487.397 177.635 488.53 167.974C489.122 163.148 491.367 156.586 493.511 150.531Z" fill="#B5675E"/>
<path d="M493.594 159.45C493.504 159.759 493.537 160.09 493.688 160.374C493.838 160.659 494.094 160.874 494.4 160.974C494.548 161.03 494.706 161.056 494.864 161.05C495.022 161.044 495.177 161.006 495.32 160.938C495.463 160.871 495.591 160.776 495.696 160.658C495.801 160.54 495.881 160.402 495.932 160.253C496.024 159.944 495.992 159.612 495.841 159.327C495.69 159.042 495.433 158.827 495.125 158.729C494.977 158.674 494.82 158.65 494.662 158.657C494.504 158.664 494.35 158.702 494.207 158.769C494.064 158.836 493.937 158.931 493.831 159.048C493.726 159.165 493.645 159.302 493.594 159.45Z" fill="#263238"/>
<path d="M493.758 155.915C493.86 156.108 494.952 155.702 496.228 156.067C497.504 156.433 498.269 157.327 498.453 157.215C498.637 157.104 498.453 156.84 498.147 156.433C497.703 155.891 497.1 155.5 496.422 155.316C495.75 155.128 495.035 155.156 494.38 155.397C493.911 155.58 493.696 155.824 493.758 155.915Z" fill="#263238"/>
<path d="M504.434 162.498C504.344 162.806 504.378 163.138 504.528 163.422C504.679 163.706 504.934 163.921 505.241 164.022C505.389 164.078 505.547 164.104 505.705 164.097C505.863 164.091 506.018 164.053 506.161 163.986C506.304 163.919 506.432 163.823 506.537 163.705C506.642 163.588 506.722 163.45 506.772 163.3C506.862 162.992 506.829 162.661 506.678 162.376C506.528 162.092 506.272 161.877 505.966 161.777C505.818 161.722 505.66 161.697 505.503 161.704C505.345 161.711 505.19 161.749 505.047 161.816C504.905 161.884 504.777 161.979 504.672 162.096C504.567 162.213 504.486 162.349 504.434 162.498V162.498Z" fill="#263238"/>
<path d="M505.537 159.45C505.639 159.654 506.731 159.237 508.017 159.603C509.303 159.968 510.059 160.873 510.242 160.751C510.426 160.629 510.242 160.385 509.926 159.968C509.48 159.43 508.877 159.043 508.201 158.861C507.531 158.663 506.814 158.688 506.159 158.932C505.659 159.105 505.445 159.349 505.537 159.45Z" fill="#263238"/>
<path d="M499.004 167.577C498.361 167.195 497.676 166.888 496.962 166.663C496.646 166.541 496.35 166.389 496.35 166.186C496.35 165.982 496.544 165.708 496.789 165.434L498.34 163.605C498.912 162.935 501.893 159.125 502.026 158.719C500.502 160.115 499.108 161.645 497.861 163.29L496.36 165.139C496.218 165.269 496.103 165.426 496.022 165.6C495.942 165.775 495.897 165.963 495.891 166.155C495.917 166.272 495.968 166.383 496.04 166.479C496.112 166.575 496.204 166.655 496.309 166.714C496.482 166.805 496.663 166.879 496.85 166.937C497.541 167.232 498.264 167.447 499.004 167.577Z" fill="#263238"/>
<path d="M494.574 180.012C498.931 181.305 503.563 181.371 507.957 180.205C507.957 180.205 502.945 185.772 493.89 182.287L494.574 180.012Z" fill="#894943"/>
<path d="M502.821 168.817C502.617 168.746 502.219 170.127 500.78 170.777C499.341 171.428 497.871 170.859 497.799 171.042C497.728 171.224 498.054 171.407 498.677 171.6C499.488 171.842 500.359 171.792 501.137 171.458C501.883 171.13 502.475 170.53 502.791 169.782C502.975 169.223 502.913 168.837 502.821 168.817Z" fill="#263238"/>
<path d="M507.129 155.295C507.129 155.732 508.354 155.753 509.661 156.22C510.967 156.687 511.978 157.378 512.223 157.032C512.335 156.87 512.223 156.443 511.855 155.966C511.404 155.377 510.785 154.938 510.079 154.706C509.403 154.462 508.667 154.438 507.976 154.635C507.435 154.808 507.119 155.092 507.129 155.295Z" fill="#263238"/>
<path d="M494.962 151.516C495.064 151.933 496.095 151.912 497.197 152.299C498.3 152.685 499.126 153.243 499.463 152.969C499.616 152.837 499.596 152.451 499.31 151.953C498.92 151.386 498.351 150.963 497.693 150.752C497.036 150.541 496.326 150.552 495.676 150.785C495.166 151.019 494.91 151.323 494.962 151.516Z" fill="#263238"/>
<path d="M495.799 145.512C497.133 144.206 498.716 143.178 500.455 142.489C502.194 141.8 504.054 141.463 505.925 141.5C509.676 141.595 513.347 142.596 516.623 144.415C519.883 146.227 522.99 148.3 525.912 150.612C526.268 150.76 526.59 150.98 526.856 151.258C527.122 151.536 527.327 151.866 527.457 152.228C527.588 152.589 527.642 152.973 527.615 153.356C527.588 153.739 527.481 154.113 527.301 154.452L522.37 169.111L520.186 171.783C518.563 171.356 517.521 169.812 516.807 168.309C514.295 162.978 513.93 156.893 515.786 151.303C515.191 151.855 514.691 152.5 514.306 153.213C514.108 153.566 513.829 153.868 513.492 154.094C513.155 154.32 512.77 154.464 512.366 154.513C511.009 154.513 510.325 152.786 510.498 151.466C510.672 150.145 511.264 148.784 510.937 147.463C509.145 148.971 507.028 150.048 504.751 150.612C503.73 150.876 502.342 150.937 501.689 150.053C501.476 149.725 501.362 149.342 501.362 148.951C501.362 148.56 501.476 148.177 501.689 147.849C502.115 147.196 502.662 146.631 503.302 146.183C501.294 147.435 498.964 148.081 496.595 148.042C496.338 148.07 496.077 148.038 495.834 147.948C495.591 147.858 495.373 147.713 495.197 147.524C494.798 146.894 495.329 146.061 495.799 145.512Z" fill="#263238"/>
<path d="M519.655 164.702C519.808 164.702 525.779 164.702 524.003 170.249C522.227 175.796 516.929 172.86 516.97 172.697C517.011 172.535 519.655 164.702 519.655 164.702Z" fill="#B5675E"/>
<path d="M519.378 171.133C519.378 171.133 519.45 171.235 519.593 171.367C519.793 171.538 520.053 171.626 520.317 171.61C520.981 171.61 521.787 170.818 522.145 169.812C522.31 169.34 522.37 168.837 522.318 168.339C522.332 168.142 522.294 167.945 522.208 167.767C522.123 167.589 521.992 167.436 521.828 167.323C521.726 167.257 521.603 167.229 521.482 167.244C521.36 167.259 521.248 167.316 521.165 167.405C521.042 167.537 521.042 167.659 521.012 167.659C520.981 167.659 520.92 167.527 521.012 167.303C521.083 167.175 521.199 167.077 521.338 167.029C521.528 166.953 521.74 166.953 521.93 167.029C522.145 167.15 522.326 167.323 522.454 167.533C522.583 167.743 522.656 167.982 522.665 168.228C522.747 168.789 522.688 169.361 522.492 169.894C522.361 170.4 522.081 170.856 521.688 171.203C521.295 171.551 520.808 171.774 520.287 171.844C520.122 171.838 519.961 171.795 519.814 171.72C519.668 171.644 519.54 171.537 519.44 171.407C519.337 171.275 519.348 171.133 519.378 171.133Z" fill="#894943"/>
<path d="M517.175 150.947C517.163 151.066 517.163 151.185 517.175 151.303C517.175 151.547 517.226 151.885 517.328 152.319C517.566 153.578 517.932 154.81 518.42 155.996C518.757 156.818 519.149 157.615 519.594 158.384C519.839 158.79 520.094 159.217 520.39 159.633C520.694 160.084 521.123 160.437 521.625 160.649C521.908 160.749 522.212 160.776 522.508 160.728C522.804 160.68 523.083 160.558 523.32 160.375C523.784 159.994 524.137 159.496 524.34 158.932C524.577 157.75 524.717 156.551 524.759 155.346C524.759 155.194 524.82 155.041 524.861 154.899H524.565L526.147 158.059L526.903 159.552C527.126 160.068 527.477 160.518 527.923 160.862C528.176 161.02 528.477 161.081 528.771 161.035C529.043 160.97 529.291 160.829 529.485 160.629C529.816 160.253 530.066 159.814 530.22 159.339C530.529 158.529 530.728 157.681 530.812 156.819C530.956 155.577 530.862 154.319 530.537 153.111C530.454 152.783 530.349 152.46 530.22 152.146C530.19 152.034 530.141 151.928 530.077 151.831C530.077 151.831 530.231 152.288 530.424 153.142C530.701 154.341 530.76 155.579 530.598 156.799C530.497 157.638 530.288 158.461 529.975 159.247C529.841 159.69 529.607 160.096 529.291 160.436C529.146 160.608 528.942 160.722 528.719 160.756C528.495 160.789 528.267 160.741 528.077 160.619C527.673 160.301 527.36 159.884 527.168 159.41C526.933 158.922 526.678 158.394 526.433 157.916L524.933 154.859L524.749 154.483L524.647 154.879C524.599 155.035 524.561 155.195 524.534 155.356C524.488 156.543 524.355 157.724 524.136 158.892C523.948 159.405 523.619 159.855 523.187 160.192C522.995 160.354 522.764 160.463 522.517 160.507C522.27 160.552 522.015 160.531 521.778 160.446C521.325 160.242 520.939 159.914 520.666 159.501C520.37 159.095 520.114 158.678 519.869 158.272C519.423 157.518 519.024 156.738 518.675 155.935C518.172 154.765 517.778 153.551 517.501 152.309C517.399 151.872 517.328 151.526 517.287 151.293C517.267 151.173 517.23 151.056 517.175 150.947V150.947Z" fill="#455A64"/>
<path d="M456.089 190.008C456.089 190.008 454.895 183.354 453.905 182.836C452.915 182.318 446.412 180.052 446.412 180.052L440.185 176.04C439.931 175.878 439.625 175.817 439.328 175.867C439.12 175.878 438.92 175.951 438.755 176.079C438.59 176.206 438.468 176.38 438.406 176.578C438.344 176.776 438.344 176.988 438.407 177.186C438.469 177.384 438.591 177.558 438.756 177.685C440.222 179.438 441.797 181.097 443.472 182.653C443.239 182.602 442.996 182.611 442.767 182.679C442.538 182.747 442.33 182.871 442.161 183.04C441.993 183.21 441.871 183.418 441.806 183.647C441.741 183.876 441.734 184.118 441.788 184.35C441.788 184.35 440.614 185.68 441.094 186.747C440.805 187.036 440.62 187.411 440.567 187.815C440.513 188.218 440.594 188.629 440.798 188.982C441.66 190.399 442.75 191.665 444.024 192.731L449.934 196.703L456.089 190.008Z" fill="#B5675E"/>
<path d="M448.199 180.672L448.036 180.601L447.576 180.408C447.372 180.337 447.117 180.235 446.821 180.154C446.661 180.099 446.497 180.058 446.331 180.032C446.237 180.012 446.139 180.012 446.045 180.032C445.993 180.048 445.945 180.076 445.904 180.113C445.863 180.15 445.831 180.195 445.81 180.245C445.638 180.678 445.596 181.151 445.688 181.607C445.781 182.063 446.004 182.483 446.331 182.816C447.085 183.665 448.082 184.264 449.189 184.532L450.149 184.807L450.087 184.705C449.542 186.453 449.589 188.33 450.22 190.049C450.453 190.74 450.798 191.388 451.241 191.969C451.241 191.969 451.129 191.786 450.945 191.461C450.68 190.999 450.462 190.512 450.292 190.008C449.697 188.312 449.668 186.47 450.21 184.756V184.675H450.128L449.179 184.4C448.102 184.137 447.128 183.561 446.382 182.744C446.078 182.423 445.871 182.023 445.786 181.589C445.701 181.156 445.742 180.708 445.902 180.296C445.902 180.215 446.004 180.134 446.065 180.123C446.147 180.114 446.229 180.114 446.31 180.123C446.472 180.143 446.633 180.174 446.79 180.215C447.086 180.296 447.331 180.388 447.546 180.449L448.015 180.611C448.138 180.672 448.199 180.682 448.199 180.672Z" fill="#894943"/>
<path d="M441.798 184.482C441.885 184.613 441.984 184.735 442.094 184.847L442.952 185.812C443.319 186.209 443.738 186.696 444.248 187.214C444.535 187.496 444.885 187.705 445.269 187.824C445.479 187.88 445.699 187.882 445.909 187.831C446.12 187.779 446.314 187.675 446.474 187.529C446.56 187.454 446.629 187.362 446.678 187.259C446.727 187.156 446.755 187.044 446.759 186.93C446.752 186.719 446.692 186.513 446.586 186.33C446.392 185.975 446.178 185.67 445.973 185.365C445.608 184.842 445.209 184.344 444.779 183.872C444.412 183.466 444.095 183.161 443.871 182.958C443.756 182.847 443.633 182.745 443.503 182.653C443.601 182.778 443.71 182.894 443.83 182.998C444.034 183.222 444.34 183.537 444.698 183.953C445.055 184.37 445.443 184.868 445.851 185.457C446.045 185.751 446.249 186.066 446.433 186.402C446.545 186.551 446.599 186.736 446.586 186.923C446.573 187.109 446.493 187.284 446.361 187.417C446.222 187.535 446.057 187.618 445.88 187.66C445.703 187.703 445.518 187.703 445.341 187.661C444.993 187.552 444.678 187.36 444.422 187.103C443.911 186.605 443.483 186.087 443.105 185.731L442.207 184.807C442.082 184.684 441.946 184.575 441.798 184.482Z" fill="#894943"/>
<path d="M440.992 186.615C441.027 186.704 441.072 186.789 441.125 186.869C441.227 187.042 441.37 187.265 441.564 187.55C442.062 188.283 442.679 188.928 443.391 189.459C443.596 189.624 443.854 189.709 444.117 189.697C444.38 189.686 444.63 189.58 444.82 189.398C444.95 189.234 445.038 189.042 445.077 188.837C445.116 188.631 445.105 188.42 445.045 188.22C444.947 187.85 444.773 187.504 444.534 187.204C444.534 187.204 444.759 187.58 444.932 188.22C444.975 188.396 444.976 188.579 444.935 188.755C444.894 188.932 444.813 189.096 444.697 189.236C444.528 189.384 444.31 189.465 444.085 189.465C443.86 189.465 443.642 189.384 443.473 189.236C442.783 188.711 442.172 188.092 441.655 187.397C441.452 187.122 441.231 186.86 440.992 186.615V186.615Z" fill="#894943"/>
<path d="M442.983 191.776C442.983 191.776 443.126 192.019 443.534 192.131C443.67 192.172 443.812 192.185 443.953 192.171C444.093 192.156 444.23 192.114 444.354 192.047C444.478 191.98 444.588 191.89 444.677 191.78C444.766 191.671 444.832 191.545 444.872 191.41C444.917 191.133 444.887 190.85 444.784 190.589C444.682 190.328 444.511 190.099 444.29 189.927C444.137 189.771 443.957 189.643 443.759 189.551C443.759 189.551 443.932 189.734 444.208 190.018C444.396 190.18 444.54 190.388 444.626 190.62C444.712 190.853 444.736 191.104 444.698 191.349C444.615 191.574 444.455 191.763 444.246 191.882C444.037 192.001 443.792 192.042 443.555 191.999C443.356 191.949 443.163 191.874 442.983 191.776V191.776Z" fill="#894943"/>
<path d="M449.026 195.9C449.026 195.9 462.122 214.033 464.501 216.654C467.329 219.763 473.086 218.107 476.536 216.096C479.598 214.348 493.042 203.225 493.042 203.225L486.377 192.639L470.401 203.976L456.11 190.008" fill="#B5675E"/>
<path d="M488.806 187.102L476.077 198.816L486.214 212.632L489.592 205.835L489.756 186.554L488.806 187.102Z" fill="#35D0F2"/>
<path d="M506.711 243.463L479.588 241.808H455.61C450.599 241.752 445.766 243.652 442.146 247.1C435.449 253.663 437.674 261.323 443.095 265.081L451.18 267.926H481.201C481.201 267.926 514.591 268.373 516.929 267.855C520.634 267.022 523.574 256.213 523.574 256.213L506.711 243.463Z" fill="#263238"/>
<path d="M526.136 199.801C524.83 191.501 515.683 184.959 515.683 184.35C507.262 186.036 497.013 185.548 492.205 183.852L488.816 187.103L483.273 241.157C483.273 241.157 490.194 243.575 497.677 245.404C508.987 248.177 524.615 258.803 524.615 258.803L525.769 253.653C525.769 253.653 528.627 215.608 526.136 199.801Z" fill="#35D0F2"/>
<path d="M484.866 225.99C484.978 225.99 485.948 217.863 487.03 207.705C488.112 197.546 488.908 189.419 488.786 189.419C488.663 189.419 487.704 197.546 486.622 207.705C485.54 217.863 484.744 225.98 484.866 225.99Z" fill="#263238"/>
<path d="M495.38 216.279L489.867 232.411L475.719 235.753C473.371 236.505 469.737 238.709 469.737 241.848C469.737 241.848 497.666 248.177 502.403 244.459C507.139 240.741 512.682 222.607 512.682 222.607L495.38 216.279Z" fill="#B5675E"/>
<path d="M501.137 192.852C504.127 188.86 507.21 189.307 511.344 192.09C512.63 192.94 513.809 193.939 514.856 195.067C517.643 198.115 521.062 205.856 521.062 205.856L516.254 225.005L493.133 217.467L497.941 198.409C498.864 196.48 499.933 194.622 501.137 192.852Z" fill="#35D0F2"/>
<path d="M509.886 188.911H508.865C508.691 188.911 508.497 188.911 508.283 188.911L507.579 189.023C507.307 189.054 507.038 189.101 506.772 189.165L505.874 189.429C504.351 189.962 502.96 190.81 501.791 191.918C501.066 192.601 500.422 193.364 499.872 194.193C499.239 195.109 498.722 196.099 498.33 197.139V197.139L493.226 217.355V217.508H493.369L497.177 218.757L516.5 225.035H516.643V224.893C518.062 219.154 519.236 214.369 520.073 210.996C520.471 209.33 520.788 208.009 521.012 207.095C521.104 206.658 521.186 206.313 521.247 206.079C521.282 205.96 521.303 205.837 521.308 205.713C521.308 205.713 521.308 205.835 521.206 206.069L520.92 207.085C520.686 207.999 520.349 209.31 519.9 210.966L516.368 224.832L516.541 224.731L497.238 218.412L493.431 217.173L493.533 217.366L498.637 197.129C499.36 195.184 500.507 193.421 501.995 191.969C503.129 190.867 504.486 190.018 505.976 189.48L506.864 189.195C507.126 189.125 507.392 189.07 507.66 189.033L508.355 188.911C508.569 188.911 508.763 188.911 508.936 188.86L509.62 188.911H509.886Z" fill="#263238"/>
</svg>
