<svg width="488" height="259" viewBox="0 0 488 259" fill="none" xmlns="http://www.w3.org/2000/svg">
<path d="M351.358 246.961C360.463 240.385 362.487 227.708 355.879 218.647C349.271 209.586 336.533 207.571 327.428 214.147C318.323 220.723 316.299 233.4 322.907 242.461C329.515 251.522 342.253 253.537 351.358 246.961Z" fill="#FF725E"/>
<path d="M1.21738 232.894L44.7513 251.297L331.951 250.754L330.88 210.006L45.5007 210.897L1.20765 229.707C0.894828 229.842 0.628578 230.065 0.44187 230.349C0.255163 230.632 0.156199 230.964 0.157235 231.304C0.158271 231.643 0.259262 231.974 0.447699 232.257C0.636137 232.54 0.903744 232.761 1.21738 232.894Z" fill="#FF725E"/>
<g opacity="0.7">
<path d="M45.501 210.897C46.6689 212.573 46.3672 214.772 44.5277 215.585C46.3894 216.029 48.0644 217.042 49.3168 218.483C50.5692 219.924 51.3359 221.719 51.5089 223.617C51.6819 225.514 51.2526 227.418 50.2813 229.059C49.31 230.701 47.8457 231.998 46.0947 232.768C47.6374 233.842 48.868 235.303 49.6623 237.002C50.4566 238.701 50.7865 240.579 50.6187 242.446C50.4509 244.312 49.7913 246.102 48.7065 247.634C47.6217 249.166 46.1501 250.386 44.4401 251.171L1.51934 233C1.18306 232.857 0.896444 232.619 0.695021 232.315C0.493598 232.011 0.38623 231.655 0.38623 231.291C0.38623 230.927 0.493598 230.571 0.695021 230.267C0.896444 229.963 1.18306 229.724 1.51934 229.581L45.501 210.897Z" fill="white"/>
</g>
<path d="M17.3153 238.724C19.1547 237.136 22.9894 232.497 17.9284 224.196C17.7199 223.857 17.3963 223.603 17.0161 223.48C16.6359 223.358 16.2242 223.374 15.8554 223.528L1.02289 229.823C0.727364 229.953 0.476077 230.165 0.299655 230.434C0.123234 230.703 0.0292969 231.018 0.0292969 231.339C0.0292969 231.66 0.123234 231.975 0.299655 232.244C0.476077 232.513 0.727364 232.725 1.02289 232.855L15.6218 239.025C15.9046 239.134 16.2122 239.164 16.5108 239.111C16.8095 239.058 17.0878 238.924 17.3153 238.724Z" fill="#FF725E"/>
<g opacity="0.3">
<path d="M46.0558 232.768L329.625 230.927L330.598 250.715L44.7127 251.326L44.3623 251.18C45.8236 250.541 47.1162 249.572 48.1386 248.352C49.4669 246.752 50.3167 244.812 50.5912 242.754C50.9045 240.239 50.2926 237.697 48.8685 235.596C48.1177 234.486 47.1635 233.526 46.0558 232.768Z" fill="black"/>
</g>
<g opacity="0.3">
<path d="M44.4888 215.585L330.919 215.033L330.657 209.793L45.4912 210.897C45.9823 211.532 46.2185 212.326 46.1537 213.125C46.089 213.923 45.7279 214.669 45.1409 215.217C44.9371 215.362 44.7186 215.486 44.4888 215.585Z" fill="black"/>
</g>
<path d="M36.1193 238.163C36.3087 238.208 36.5078 238.187 36.6838 238.105C36.9255 237.975 37.1107 237.76 37.204 237.503C37.2973 237.246 37.2923 236.964 37.1899 236.71C36.8095 235.917 36.1949 235.258 35.4283 234.821C34.9654 234.534 34.4253 234.396 33.8808 234.424C33.5827 234.432 33.2916 234.516 33.0359 234.669C32.7801 234.822 32.5683 235.038 32.421 235.296C32.2828 235.6 32.2114 235.93 32.2114 236.264C32.2114 236.598 32.2828 236.929 32.421 237.233C32.7014 237.916 33.0783 238.555 33.5402 239.131C34.5083 240.438 35.7419 241.527 37.1607 242.328C37.527 242.547 37.9356 242.687 38.3598 242.739C38.784 242.79 39.2145 242.753 39.6231 242.628C40.0245 242.44 40.3737 242.158 40.6401 241.805C40.9064 241.452 41.0819 241.039 41.1511 240.604C41.4333 238.783 40.4406 236.904 39.2046 235.402C38.03 233.958 36.4793 232.863 34.7218 232.236C32.9642 231.609 31.0674 231.475 29.2384 231.848C28.8461 231.957 28.4842 232.155 28.1805 232.425C27.8768 232.695 27.6394 233.031 27.4865 233.407C27.2223 234.139 27.1388 234.923 27.2432 235.693C27.4212 237.099 27.8117 238.471 28.4014 239.761C29.2572 241.64 30.4777 243.332 31.9927 244.739C32.5377 245.224 32.966 245.582 33.2872 245.814C33.6083 246.047 33.7543 246.173 33.7543 246.173C33.0976 245.782 32.4815 245.328 31.9149 244.817C30.3531 243.43 29.0943 241.739 28.2165 239.848C27.609 238.541 27.2022 237.15 27.0096 235.722C26.893 234.91 26.9765 234.083 27.2529 233.31C27.4235 232.896 27.688 232.527 28.0256 232.231C28.3633 231.935 28.765 231.721 29.1995 231.606C31.0807 231.204 33.037 231.329 34.8512 231.967C36.6653 232.605 38.2665 233.73 39.4771 235.218C40.1201 235.988 40.6419 236.85 41.0246 237.775C41.4415 238.684 41.5868 239.693 41.4431 240.681C41.3691 241.163 41.1743 241.619 40.8767 242.007C40.579 242.395 40.1881 242.701 39.7399 242.899C39.2965 243.038 38.8285 243.081 38.3671 243.026C37.9057 242.97 37.4613 242.818 37.0634 242.579C35.6138 241.754 34.3539 240.635 33.365 239.296C32.8971 238.708 32.5169 238.055 32.236 237.359C32.0889 237.033 32.0128 236.68 32.0128 236.322C32.0128 235.965 32.0889 235.612 32.236 235.286C32.4016 235 32.6379 234.761 32.9223 234.592C33.2068 234.422 33.53 234.328 33.8614 234.318C34.4394 234.296 35.0102 234.451 35.4965 234.763C36.2918 235.221 36.9192 235.92 37.2873 236.758C37.3917 237.033 37.3887 237.337 37.2788 237.61C37.1688 237.882 36.9599 238.104 36.6936 238.231C36.5996 238.267 36.4981 238.28 36.3979 238.268C36.2978 238.256 36.2021 238.22 36.1193 238.163Z" fill="white"/>
<path d="M25.8125 219.76C25.8125 219.76 25.9974 220.312 26.5132 221.222C27.2639 222.481 28.256 223.58 29.433 224.457C31.2146 225.732 33.1382 226.798 35.1655 227.634C37.6891 228.627 40.0305 230.028 42.0951 231.78C44.052 233.674 45.4058 236.099 45.9882 238.754C46.3873 240.564 46.4074 242.436 46.0474 244.254C45.6874 246.072 44.9549 247.797 43.8957 249.321C43.5929 249.772 43.2474 250.194 42.864 250.58C42.9352 250.46 43.0166 250.347 43.1073 250.241C43.3545 249.93 43.5851 249.607 43.7984 249.272C44.6054 248.038 45.213 246.684 45.5989 245.262C46.1682 243.158 46.215 240.948 45.7351 238.821C45.1322 236.217 43.7793 233.844 41.8421 231.993C39.8079 230.266 37.5075 228.876 35.0293 227.876C33.0062 227.017 31.0946 225.917 29.3357 224.603C28.136 223.707 27.1409 222.568 26.4159 221.261C26.1463 220.791 25.9432 220.286 25.8125 219.76Z" fill="white"/>
<path d="M36.5085 214.53C36.1645 215.503 36.1922 216.568 36.5864 217.522C37.7095 219.741 39.1667 221.776 40.9077 223.557C42.5926 225.396 44.443 227.079 46.4358 228.584C47.1949 229.165 47.8373 229.61 48.2753 229.92C48.5176 230.063 48.7457 230.228 48.9565 230.414C48.6983 230.301 48.4508 230.165 48.2169 230.007C47.7594 229.726 47.0976 229.31 46.2703 228.748C44.2234 227.281 42.3379 225.602 40.6449 223.741C39.7138 222.721 38.8398 221.65 38.0268 220.535C37.335 219.649 36.7715 218.671 36.3528 217.629C36.0723 216.904 36.0015 216.116 36.1484 215.353C36.2201 215.06 36.3419 214.781 36.5085 214.53Z" fill="white"/>
<path d="M51.4283 225.252C50.8879 225.082 50.3687 224.851 49.8809 224.564C48.6325 223.964 47.5375 223.09 46.6788 222.007C46.233 221.467 45.9141 220.834 45.7457 220.155C45.5773 219.477 45.5636 218.769 45.7056 218.084C45.805 217.676 45.9763 217.289 46.2117 216.941C46.3869 216.699 46.5231 216.602 46.5328 216.612C46.2406 217.081 46.0269 217.595 45.9002 218.133C45.7906 218.784 45.8206 219.452 45.9884 220.091C46.1561 220.73 46.4577 221.327 46.8735 221.842C47.7196 222.885 48.7649 223.751 49.949 224.39C50.4587 224.648 50.9526 224.936 51.4283 225.252Z" fill="white"/>
<path d="M19.0479 222.026C19.0479 222.026 19.1354 222.026 19.2717 222.123C19.408 222.22 19.6318 222.298 19.8946 222.452C20.2281 222.632 20.5252 222.872 20.7705 223.16C21.0726 223.56 21.279 224.024 21.3739 224.516C21.6465 225.581 21.7146 226.879 21.9092 228.283C22.1306 229.812 22.4856 231.319 22.9701 232.787C23.8772 235.455 24.9968 238.046 26.3181 240.536L27.486 242.822C27.6438 243.094 27.7773 243.379 27.8851 243.674C27.698 243.42 27.532 243.151 27.3887 242.87C27.087 242.347 26.649 241.582 26.1332 240.633C24.7543 238.159 23.6043 235.565 22.6976 232.884C22.2076 231.402 21.8557 229.878 21.6465 228.332C21.4615 226.908 21.4226 225.62 21.1696 224.574C21.1193 224.158 20.9727 223.76 20.7413 223.41C20.5099 223.06 20.2001 222.769 19.8362 222.559C19.5637 222.396 19.3005 222.218 19.0479 222.026Z" fill="white"/>
<path d="M344.379 214.917C344.379 215.082 341.168 215.208 337.197 215.198C334.796 215.291 332.391 215.197 330.004 214.917C330.004 214.752 333.216 214.626 337.197 214.636C339.595 214.543 341.996 214.637 344.379 214.917Z" fill="#263238"/>
<path d="M344.555 230.492C344.555 230.656 341.226 230.792 337.119 230.986C334.643 231.196 332.158 231.264 329.674 231.189C334.591 230.389 339.584 230.155 344.555 230.492Z" fill="#263238"/>
<path d="M308.573 175.426H238.898C233.765 175.427 228.843 173.425 225.213 169.861C221.583 166.297 219.542 161.463 219.54 156.422C219.54 151.379 221.579 146.542 225.209 142.976C228.84 139.41 233.764 137.407 238.898 137.407H308.564L308.573 175.426Z" fill="#F29188"/>
<path d="M289.293 137.407H444.548C445.304 137.407 446.029 137.702 446.564 138.228C447.099 138.753 447.399 139.465 447.399 140.208V140.877C447.408 141.251 447.341 141.622 447.202 141.97C447.063 142.317 446.854 142.634 446.588 142.901C446.323 143.169 446.005 143.381 445.655 143.526C445.304 143.671 444.928 143.745 444.548 143.745H289.293V137.436V137.407Z" fill="#F29188"/>
<path d="M289.293 169.117H444.547C445.304 169.117 446.029 169.412 446.564 169.937C447.099 170.463 447.399 171.175 447.399 171.918V172.625C447.399 173.368 447.099 174.081 446.564 174.606C446.029 175.131 445.304 175.427 444.547 175.427H289.293V169.117Z" fill="#F29188"/>
<path d="M442.679 169.117H306.939C303.511 169.117 300.223 167.779 297.799 165.399C295.375 163.018 294.014 159.789 294.014 156.422V156.422C294.019 153.058 295.383 149.834 297.806 147.457C300.229 145.08 303.514 143.745 306.939 143.745H442.679C440.883 147.742 439.955 152.062 439.955 156.431C439.955 160.8 440.883 165.12 442.679 169.117V169.117Z" fill="#F5F5F5"/>
<g opacity="0.3">
<path d="M294.014 175.426H238.966C233.821 175.414 228.89 173.4 225.251 169.827C221.612 166.253 219.563 161.409 219.55 156.355V156.355C219.551 153.862 220.053 151.394 221.026 149.092C222 146.79 223.426 144.699 225.223 142.939C227.02 141.179 229.153 139.785 231.5 138.836C233.846 137.886 236.36 137.401 238.898 137.407H295.532C281.469 145.743 282.52 165.733 294.014 175.426Z" fill="#9D6A65"/>
</g>
<path d="M426.192 157.597C426.192 157.722 398.328 157.827 363.962 157.827C329.596 157.827 301.731 157.722 301.731 157.597C301.731 157.473 329.596 157.368 363.962 157.368C398.328 157.368 426.192 157.473 426.192 157.597Z" fill="#263238"/>
<path d="M438.999 163.238C438.999 163.362 411.135 163.467 376.769 163.467C342.403 163.467 314.539 163.362 314.539 163.238C314.539 163.113 342.393 163.008 376.769 163.008C411.144 163.008 438.999 163.113 438.999 163.238Z" fill="#263238"/>
<path d="M435.224 149.586C435.224 149.72 407.359 149.816 372.993 149.816C338.628 149.816 310.763 149.72 310.763 149.586C310.763 149.452 338.618 149.366 372.993 149.366C407.369 149.366 435.224 149.481 435.224 149.586Z" fill="#263238"/>
<path d="M287.191 172.759C287.191 172.884 274.149 172.989 258.071 172.989C241.992 172.989 228.941 172.884 228.941 172.759C228.941 172.635 241.983 172.53 258.071 172.53C274.159 172.53 287.191 172.635 287.191 172.759Z" fill="#263238"/>
<path d="M287.191 140.562C287.191 140.686 274.149 140.791 258.071 140.791C241.992 140.791 228.941 140.686 228.941 140.562C228.941 140.438 241.983 140.332 258.071 140.332C274.159 140.332 287.191 140.438 287.191 140.562Z" fill="#263238"/>
<path d="M211.91 202.117H301.634V251.083H211.91C205.299 251.083 198.959 248.503 194.285 243.912C189.61 239.321 186.984 233.093 186.984 226.6C186.984 220.107 189.61 213.88 194.285 209.288C198.959 204.697 205.299 202.117 211.91 202.117V202.117Z" fill="#FF725E"/>
<path d="M276.855 202.117H477.571C478.327 202.117 479.052 202.413 479.587 202.938C480.122 203.463 480.422 204.176 480.422 204.918V207.442C480.422 208.185 480.122 208.898 479.587 209.423C479.052 209.948 478.327 210.243 477.571 210.243H276.855V202.117Z" fill="#FF725E"/>
<path d="M284.155 243.005H484.871C485.627 243.005 486.352 243.3 486.887 243.825C487.422 244.35 487.722 245.063 487.722 245.806V248.329C487.722 249.072 487.422 249.785 486.887 250.31C486.352 250.835 485.627 251.13 484.871 251.13H284.155V243.005Z" fill="#FF725E"/>
<path d="M474.348 242.947H299.531C295.115 242.947 290.879 241.224 287.756 238.157C284.633 235.089 282.879 230.929 282.879 226.59V226.59C282.881 222.254 284.637 218.096 287.76 215.031C290.882 211.965 295.117 210.243 299.531 210.243H474.348C472.029 215.394 470.831 220.963 470.831 226.595C470.831 232.227 472.029 237.797 474.348 242.947V242.947Z" fill="#F5F5F5"/>
<g opacity="0.4">
<path d="M282.879 251.073H211.646C205.108 251.073 198.838 248.522 194.214 243.981C189.591 239.44 186.994 233.28 186.994 226.858V226.858C186.992 223.609 187.643 220.391 188.908 217.389C190.174 214.387 192.029 211.659 194.368 209.361C196.707 207.063 199.485 205.241 202.541 203.998C205.598 202.755 208.874 202.116 212.182 202.117H284.777C266.733 212.853 268.095 238.569 282.879 251.073Z" fill="black"/>
</g>
<path d="M453.103 228.11C453.103 228.235 417.219 228.34 372.974 228.34C328.73 228.34 292.826 228.235 292.826 228.11C292.826 227.986 328.701 227.881 372.974 227.881C417.248 227.881 453.103 227.986 453.103 228.11Z" fill="#263238"/>
<path d="M469.56 235.386C469.56 235.51 433.676 235.605 389.422 235.605C345.168 235.605 309.284 235.51 309.284 235.386C309.284 235.261 345.158 235.156 389.422 235.156C433.686 235.156 469.56 235.252 469.56 235.386Z" fill="#263238"/>
<path d="M464.695 221.371C464.695 221.495 428.81 221.591 384.566 221.591C340.322 221.591 304.418 221.495 304.418 221.371C304.418 221.247 340.292 221.141 384.566 221.141C428.84 221.141 464.695 221.237 464.695 221.371Z" fill="#263238"/>
<path d="M274.1 247.641C274.1 247.765 257.312 247.871 236.591 247.871C215.87 247.871 199.082 247.765 199.082 247.641C199.082 247.517 215.87 247.412 236.591 247.412C257.312 247.412 274.1 247.517 274.1 247.641Z" fill="#263238"/>
<path d="M274.1 206.18C274.1 206.305 257.312 206.4 236.591 206.4C215.87 206.4 199.082 206.305 199.082 206.18C199.082 206.056 215.87 205.951 236.591 205.951C257.312 205.951 274.1 206.056 274.1 206.18Z" fill="#263238"/>
<path d="M331.415 202.289H252.523C248.739 202.289 245.11 200.813 242.434 198.185C239.758 195.556 238.255 191.992 238.255 188.275V188.275C238.255 184.558 239.758 180.993 242.434 178.365C245.11 175.737 248.739 174.26 252.523 174.26H331.406L331.415 202.289Z" fill="#455A64"/>
<path d="M311.24 174.26H473.677C474.071 174.26 474.46 174.336 474.823 174.484C475.186 174.633 475.516 174.85 475.794 175.123C476.071 175.397 476.291 175.721 476.441 176.079C476.59 176.436 476.667 176.818 476.665 177.205V177.95C476.665 178.336 476.588 178.717 476.438 179.073C476.288 179.429 476.068 179.753 475.79 180.026C475.513 180.298 475.183 180.514 474.821 180.662C474.458 180.809 474.07 180.885 473.677 180.885H311.24V174.279V174.26Z" fill="#455A64"/>
<path d="M311.24 195.684H473.677C474.47 195.684 475.23 195.993 475.79 196.543C476.351 197.094 476.665 197.84 476.665 198.619V199.364C476.665 200.143 476.351 200.889 475.79 201.439C475.23 201.99 474.47 202.299 473.677 202.299H311.24V195.693V195.684Z" fill="#455A64"/>
<path d="M471.732 195.684H323.718C321.718 195.684 319.799 194.903 318.385 193.514C316.97 192.124 316.175 190.24 316.175 188.275V188.275C316.175 186.31 316.97 184.425 318.385 183.036C319.799 181.647 321.718 180.866 323.718 180.866H471.732C467.929 185.812 467.929 190.751 471.732 195.684Z" fill="#F5F5F5"/>
<g opacity="0.3">
<path d="M316.175 202.289H252.416C248.663 202.289 245.064 200.825 242.41 198.218C239.756 195.612 238.265 192.076 238.265 188.39C238.265 184.642 239.781 181.048 242.478 178.399C245.176 175.749 248.835 174.26 252.65 174.26H317.732C303.045 180.407 304.106 195.129 316.175 202.289Z" fill="black"/>
</g>
<path d="M454.475 187.109C454.475 187.233 425.326 187.338 389.364 187.338C353.402 187.338 324.252 187.233 324.252 187.109C324.252 186.984 353.402 186.879 389.364 186.879C425.326 186.879 454.475 186.984 454.475 187.109Z" fill="#263238"/>
<path d="M467.877 191.095C467.877 191.219 438.679 191.324 402.766 191.324C366.853 191.324 337.655 191.219 337.655 191.095C337.655 190.971 366.804 190.875 402.766 190.875C438.728 190.875 467.877 190.971 467.877 191.095Z" fill="#263238"/>
<path d="M309.04 199.508C309.04 199.632 295.415 199.727 278.567 199.727C261.72 199.727 248.085 199.632 248.085 199.508C248.085 199.383 261.711 199.278 278.567 199.278C295.424 199.278 309.04 199.374 309.04 199.508Z" fill="#263238"/>
<path d="M309.04 177.558C309.04 177.683 295.415 177.788 278.567 177.788C261.72 177.788 248.085 177.683 248.085 177.558C248.085 177.434 261.711 177.329 278.567 177.329C295.424 177.329 309.04 177.434 309.04 177.558Z" fill="#263238"/>
<path d="M474.719 174.26C474.719 174.384 424.665 174.49 362.931 174.49C301.197 174.49 251.123 174.384 251.123 174.26C251.123 174.136 301.168 174.031 362.931 174.031C424.694 174.031 474.719 174.136 474.719 174.26Z" fill="#263238"/>
<path d="M351.553 149.758V164.978L356.925 161.593L362.92 164.978V149.758H351.553Z" fill="#F29188"/>
<g opacity="0.6">
<path d="M431.749 239.946C432.158 240.048 432.515 240.294 432.75 240.638C432.985 240.982 433.083 241.399 433.024 241.81C432.939 242.217 432.698 242.577 432.35 242.814C432.001 243.05 431.574 243.146 431.156 243.081C430.722 242.97 430.345 242.706 430.097 242.339C429.849 241.972 429.748 241.528 429.813 241.093C429.949 240.68 430.244 240.334 430.634 240.129C431.024 239.925 431.479 239.876 431.905 239.993" fill="white"/>
</g>
<path d="M384.937 27.1951C387.671 22.7594 391.994 19.521 397.034 18.1334L396.727 17.7576C398.892 17.7527 400.979 18.5589 402.574 20.0158C404.168 21.4728 405.153 23.4737 405.333 25.6205C405.28 27.3837 405.065 29.1384 404.69 30.8624C404.323 32.5932 404.598 34.3977 405.465 35.9418C405.986 36.724 406.752 37.3234 407.323 38.0751C407.639 38.4249 407.855 38.8526 407.948 39.3135C408.041 39.7745 408.009 40.2519 407.854 40.6961C407.344 41.7933 405.812 42.0167 404.669 41.8034C403.515 41.4391 402.306 41.2809 401.096 41.3361C401.415 41.7497 401.643 42.2245 401.768 42.7305C401.892 43.2364 401.91 43.7626 401.82 44.2757C401.73 44.7888 401.534 45.2778 401.244 45.7118C400.955 46.1458 400.578 46.5153 400.138 46.797C399.697 47.0788 399.203 47.2667 398.686 47.3488C398.169 47.4309 397.641 47.4055 397.135 47.2742C396.628 47.1429 396.154 46.9086 395.743 46.5859C395.333 46.2632 394.993 45.8593 394.747 45.3996C394.723 46.4593 394.327 47.4772 393.628 48.2768C392.929 49.0765 391.97 49.6076 390.919 49.7781C389.862 49.9108 388.789 49.7859 387.791 49.4143C386.794 49.0427 385.902 48.4354 385.192 47.6447C383.796 46.0363 382.855 44.0867 382.467 41.9964C381.382 36.9292 382.265 31.6413 384.937 27.1951Z" fill="#263238"/>
<path d="M362.204 9.13274C362.587 8.51158 363.14 8.01227 363.798 7.69368C364.456 7.37508 365.193 7.25051 365.92 7.33464C367.358 7.53343 368.744 8.00594 370.003 8.72639C369.962 6.78491 370.309 4.85473 371.024 3.04764C371.4 2.15654 372.029 1.39382 372.834 0.852621C373.639 0.311423 374.585 0.0151688 375.556 0C376.388 0.13664 377.181 0.446061 377.885 0.908146C378.588 1.37023 379.186 1.9746 379.639 2.6819C380.538 4.08908 381.589 5.39385 382.773 6.57273C386.111 9.3664 391.246 8.36067 395.155 10.2807C399.065 12.2007 401.443 18.042 399.677 22.136C392.042 22.908 384.365 23.6903 377.046 26.1182C373.106 27.4287 368.778 29.2166 364.981 27.5303C363.796 27.0017 362.777 26.1645 362.031 25.1071C361.285 24.0498 360.84 22.8116 360.743 21.5233C360.646 20.2351 360.9 18.9446 361.479 17.7882C362.058 16.6318 362.939 15.6525 364.031 14.9537C362.663 13.1963 361.183 11.002 362.204 9.13274Z" fill="#263238"/>
<path d="M366.511 20.5309C368.44 15.0858 376.015 11.2356 381.405 13.4198L398.452 21.9024L397.543 24.8687L385.937 61.5114C385.937 61.5114 381.006 73.001 371.084 69.4759C362.203 66.2658 365.388 56.879 365.388 56.879L367.655 49.9914C367.655 49.9914 360.397 47.6346 361.53 37.9736C362.122 33.1481 364.368 26.5855 366.511 20.5309Z" fill="#B5675E"/>
<path d="M366.594 29.4503C366.503 29.7588 366.537 30.0901 366.687 30.3744C366.838 30.6587 367.093 30.8737 367.4 30.9741C367.548 31.0302 367.706 31.0559 367.864 31.0498C368.022 31.0436 368.177 31.0057 368.32 30.9383C368.463 30.871 368.591 30.7755 368.696 30.6577C368.801 30.5399 368.881 30.4022 368.931 30.2529C369.024 29.9444 368.992 29.6119 368.841 29.3269C368.69 29.0419 368.433 28.8273 368.125 28.7291C367.977 28.6745 367.819 28.6499 367.662 28.6567C367.504 28.6635 367.349 28.7017 367.207 28.7689C367.064 28.8361 366.936 28.931 366.831 29.048C366.726 29.165 366.645 29.3018 366.594 29.4503Z" fill="#263238"/>
<path d="M366.758 25.9151C366.86 26.1081 367.952 25.7017 369.228 26.0675C370.504 26.4332 371.27 27.3271 371.453 27.2154C371.637 27.1036 371.453 26.8395 371.147 26.4332C370.703 25.8907 370.1 25.4999 369.422 25.3157C368.75 25.1277 368.035 25.1561 367.38 25.397C366.911 25.5798 366.697 25.8236 366.758 25.9151Z" fill="#263238"/>
<path d="M377.434 32.4979C377.344 32.8064 377.378 33.1377 377.528 33.422C377.679 33.7063 377.934 33.9213 378.241 34.0217C378.389 34.0778 378.547 34.1035 378.705 34.0974C378.863 34.0912 379.018 34.0533 379.161 33.9859C379.304 33.9186 379.432 33.8231 379.537 33.7053C379.642 33.5875 379.722 33.4498 379.772 33.3005C379.862 32.992 379.829 32.6607 379.678 32.3764C379.528 32.0921 379.272 31.8771 378.966 31.7767C378.818 31.7221 378.66 31.6975 378.503 31.7043C378.345 31.7111 378.19 31.7493 378.047 31.8165C377.905 31.8837 377.777 31.9786 377.672 32.0956C377.567 32.2126 377.486 32.3494 377.434 32.4979Z" fill="#263238"/>
<path d="M378.537 29.4503C378.639 29.6535 379.731 29.237 381.017 29.6027C382.304 29.9684 383.059 30.8726 383.243 30.7507C383.426 30.6288 383.243 30.385 382.926 29.9685C382.481 29.4302 381.878 29.0433 381.201 28.8611C380.531 28.6634 379.814 28.6883 379.16 28.9322C378.659 29.1049 378.445 29.3488 378.537 29.4503Z" fill="#263238"/>
<path d="M372.004 37.5774C371.362 37.1946 370.676 36.8878 369.962 36.6631C369.646 36.5412 369.35 36.3888 369.35 36.1856C369.35 35.9824 369.544 35.7082 369.789 35.4339L371.341 33.6053C371.912 32.9348 374.893 29.1253 375.026 28.7189C373.502 30.1147 372.108 31.6447 370.861 33.2904L369.36 35.1393C369.218 35.269 369.103 35.4256 369.022 35.6001C368.942 35.7745 368.897 35.9632 368.891 36.1551C368.917 36.2723 368.968 36.3827 369.04 36.479C369.112 36.5752 369.204 36.6553 369.309 36.7139C369.482 36.8045 369.663 36.8793 369.85 36.9374C370.541 37.2323 371.264 37.447 372.004 37.5774Z" fill="#263238"/>
<path d="M367.574 50.0117C371.931 51.3045 376.563 51.3714 380.957 50.2047C380.957 50.2047 375.945 55.7717 366.89 52.2873L367.574 50.0117Z" fill="#894943"/>
<path d="M375.822 38.8167C375.617 38.7456 375.219 40.1272 373.78 40.7774C372.341 41.4275 370.871 40.8586 370.799 41.0415C370.728 41.2244 371.054 41.4072 371.677 41.6002C372.489 41.842 373.359 41.7917 374.137 41.458C374.883 41.1298 375.475 40.5301 375.791 39.7818C375.975 39.2231 375.913 38.837 375.822 38.8167Z" fill="#263238"/>
<path d="M380.129 25.2954C380.129 25.7322 381.354 25.7525 382.661 26.2198C383.967 26.6871 384.978 27.3779 385.223 27.0325C385.335 26.87 385.223 26.4433 384.855 25.9659C384.405 25.3772 383.785 24.9381 383.079 24.7061C382.403 24.4624 381.667 24.4375 380.976 24.6351C380.435 24.8078 380.119 25.0922 380.129 25.2954Z" fill="#263238"/>
<path d="M367.961 21.5163C368.064 21.9328 369.095 21.9125 370.197 22.2985C371.299 22.6846 372.126 23.2433 372.463 22.969C372.616 22.8369 372.596 22.4509 372.31 21.9531C371.92 21.3858 371.351 20.9633 370.693 20.7519C370.036 20.5406 369.326 20.5521 368.676 20.7849C368.166 21.0185 367.91 21.3233 367.961 21.5163Z" fill="#263238"/>
<path d="M368.799 15.5125C370.133 14.2059 371.716 13.1779 373.455 12.4888C375.194 11.7997 377.054 11.4634 378.925 11.4997C382.676 11.595 386.347 12.5955 389.623 14.4153C392.883 16.2271 395.99 18.2995 398.912 20.6122C399.268 20.7598 399.59 20.9797 399.856 21.2578C400.122 21.5359 400.327 21.8662 400.457 22.2275C400.588 22.5888 400.641 22.9732 400.614 23.3563C400.587 23.7393 400.481 24.1126 400.301 24.4522L395.37 39.1113L393.186 41.7831C391.562 41.3564 390.521 39.8123 389.807 38.3088C387.295 32.9784 386.929 26.8931 388.786 21.303C388.191 21.8551 387.691 22.5002 387.306 23.2128C387.108 23.5661 386.829 23.868 386.492 24.094C386.155 24.3199 385.77 24.4635 385.366 24.5132C384.009 24.5132 383.325 22.7862 383.498 21.4655C383.672 20.1449 384.264 18.7836 383.937 17.463C382.145 18.9706 380.028 20.048 377.751 20.6122C376.73 20.8763 375.342 20.9373 374.689 20.0534C374.476 19.725 374.362 19.3422 374.362 18.9512C374.362 18.5602 374.476 18.1775 374.689 17.849C375.115 17.1963 375.662 16.6307 376.302 16.1829C374.294 17.4351 371.964 18.0809 369.595 18.042C369.337 18.0699 369.077 18.0377 368.834 17.9477C368.591 17.8578 368.373 17.7127 368.197 17.5239C367.798 16.8941 368.329 16.061 368.799 15.5125Z" fill="#263238"/>
<path d="M392.655 34.7025C392.808 34.7025 398.779 34.7024 397.003 40.2491C395.227 45.7958 389.929 42.86 389.97 42.6974C390.011 42.5349 392.655 34.7025 392.655 34.7025Z" fill="#B5675E"/>
<path d="M392.378 41.1329C392.378 41.1329 392.45 41.2345 392.593 41.3666C392.794 41.5383 393.053 41.6257 393.318 41.6104C393.981 41.6104 394.788 40.818 395.145 39.8123C395.31 39.3399 395.37 38.837 395.318 38.3392C395.332 38.1422 395.295 37.9448 395.209 37.7667C395.123 37.5886 394.992 37.4358 394.828 37.3234C394.726 37.2572 394.603 37.2291 394.482 37.244C394.361 37.2589 394.248 37.3157 394.165 37.4046C394.042 37.5367 394.042 37.6586 394.012 37.6586C393.981 37.6586 393.92 37.5266 394.012 37.3031C394.083 37.175 394.199 37.0774 394.338 37.0288C394.528 36.953 394.74 36.953 394.93 37.0288C395.145 37.1497 395.326 37.3233 395.454 37.5331C395.583 37.7429 395.656 37.9819 395.665 38.2275C395.748 38.7886 395.688 39.3612 395.492 39.8935C395.361 40.3999 395.081 40.8559 394.688 41.2033C394.296 41.5507 393.808 41.7738 393.287 41.844C393.122 41.8376 392.961 41.7951 392.814 41.7196C392.668 41.6441 392.54 41.5375 392.44 41.4072C392.338 41.2751 392.348 41.1329 392.378 41.1329Z" fill="#894943"/>
<path d="M390.175 20.9474C390.163 21.0657 390.163 21.1847 390.175 21.303C390.175 21.5468 390.226 21.8854 390.328 22.3189C390.566 23.5781 390.932 24.8102 391.42 25.9963C391.757 26.8175 392.149 27.6151 392.594 28.3837C392.839 28.79 393.094 29.2167 393.39 29.6332C393.694 30.084 394.123 30.437 394.625 30.649C394.908 30.7486 395.212 30.7757 395.508 30.7278C395.804 30.6798 396.083 30.5584 396.32 30.3748C396.784 29.9943 397.137 29.4958 397.34 28.9322C397.577 27.75 397.717 26.5508 397.759 25.3462C397.759 25.1938 397.82 25.0414 397.861 24.8992H397.565L399.147 28.0586L399.903 29.5519C400.126 30.0676 400.477 30.5185 400.923 30.8624C401.176 31.0197 401.477 31.081 401.771 31.0351C402.043 30.9701 402.291 30.8291 402.485 30.6287C402.816 30.253 403.066 29.814 403.22 29.3386C403.529 28.5286 403.728 27.6814 403.812 26.8192C403.956 25.577 403.862 24.3189 403.537 23.1112C403.454 22.7825 403.349 22.46 403.22 22.1461C403.19 22.0343 403.141 21.928 403.077 21.8312C403.077 21.8312 403.23 22.2884 403.424 23.1417C403.701 24.3407 403.76 25.5793 403.598 26.7989C403.497 27.6382 403.288 28.461 402.975 29.2471C402.841 29.6898 402.607 30.0963 402.291 30.4357C402.146 30.6082 401.942 30.7219 401.719 30.7555C401.495 30.7892 401.267 30.7405 401.077 30.6186C400.673 30.301 400.36 29.8843 400.168 29.4097C399.933 28.9221 399.678 28.3938 399.433 27.9163L397.933 24.8586L397.749 24.4827L397.647 24.8789C397.598 25.0353 397.561 25.1948 397.534 25.3563C397.488 26.5428 397.355 27.7244 397.136 28.8916C396.948 29.4047 396.619 29.8552 396.187 30.1919C395.995 30.3538 395.764 30.4625 395.517 30.5071C395.27 30.5517 395.015 30.5306 394.778 30.4459C394.325 30.2418 393.939 29.9143 393.666 29.5011C393.37 29.0947 393.114 28.6782 392.869 28.2719C392.423 27.5183 392.024 26.738 391.675 25.9354C391.171 24.7654 390.778 23.5512 390.501 22.3087C390.399 21.8719 390.328 21.5265 390.287 21.2928C390.267 21.1726 390.23 21.0561 390.175 20.9474Z" fill="#455A64"/>
<path d="M329.089 60.0079C329.089 60.0079 327.895 53.3539 326.905 52.8358C325.914 52.3177 319.412 50.0523 319.412 50.0523L313.185 46.0396C312.931 45.8781 312.625 45.8165 312.328 45.8669C312.119 45.8776 311.92 45.9515 311.755 46.0786C311.59 46.2058 311.468 46.3801 311.406 46.5781C311.344 46.7762 311.344 46.9885 311.406 47.1864C311.469 47.3844 311.591 47.5585 311.756 47.6854C313.222 49.4379 314.797 51.097 316.472 52.653C316.239 52.6024 315.996 52.6114 315.767 52.6792C315.538 52.7469 315.329 52.8711 315.161 53.0404C314.993 53.2096 314.871 53.4183 314.806 53.6472C314.74 53.8761 314.734 54.1177 314.788 54.3495C314.788 54.3495 313.614 55.6803 314.094 56.747C313.805 57.0358 313.62 57.4109 313.566 57.8147C313.513 58.2185 313.594 58.6286 313.798 58.9819C314.66 60.3987 315.749 61.665 317.023 62.7305L322.934 66.7026L329.089 60.0079Z" fill="#B5675E"/>
<path d="M321.199 50.672L321.036 50.6009L320.576 50.4079C320.372 50.3368 320.117 50.2352 319.821 50.1539C319.662 50.099 319.498 50.0582 319.331 50.032C319.237 50.0117 319.139 50.0117 319.045 50.032C318.993 50.0485 318.945 50.0761 318.904 50.1129C318.864 50.1497 318.832 50.1949 318.81 50.2453C318.638 50.678 318.596 51.151 318.688 51.6071C318.781 52.0633 319.004 52.483 319.331 52.8155C320.085 53.665 321.083 54.2641 322.189 54.5323L323.149 54.8066L323.088 54.705C322.542 56.4526 322.589 58.33 323.22 60.0486C323.453 60.7397 323.798 61.3883 324.241 61.9686C324.241 61.9686 324.129 61.7857 323.945 61.4606C323.681 60.9986 323.462 60.512 323.292 60.0079C322.697 58.3117 322.668 56.4696 323.21 54.7558V54.6746H323.128L322.179 54.4003C321.102 54.137 320.128 53.5605 319.382 52.7444C319.078 52.4231 318.871 52.0226 318.786 51.5893C318.701 51.156 318.742 50.7076 318.902 50.2961C318.902 50.2148 319.004 50.1336 319.066 50.1234C319.147 50.1136 319.229 50.1136 319.311 50.1234C319.472 50.1431 319.633 50.1737 319.79 50.2149C320.086 50.2961 320.331 50.3876 320.546 50.4485L321.015 50.611C321.138 50.672 321.199 50.6822 321.199 50.672Z" fill="#894943"/>
<path d="M314.798 54.4816C314.885 54.613 314.984 54.7355 315.094 54.8473L315.952 55.8124C316.319 56.2085 316.738 56.6961 317.248 57.2142C317.535 57.4959 317.885 57.705 318.269 57.8238C318.479 57.8797 318.699 57.882 318.909 57.8305C319.12 57.779 319.314 57.6754 319.474 57.5292C319.559 57.4537 319.629 57.3617 319.678 57.2586C319.727 57.1556 319.755 57.0437 319.759 56.9298C319.752 56.7189 319.692 56.5131 319.586 56.3304C319.392 55.9749 319.178 55.6701 318.973 55.3654C318.608 54.8424 318.209 54.3436 317.779 53.872C317.412 53.4657 317.095 53.1609 316.871 52.9577C316.756 52.8468 316.633 52.7449 316.503 52.653C316.601 52.7782 316.71 52.8939 316.83 52.9983C317.034 53.2218 317.34 53.5368 317.697 53.9533C318.055 54.3698 318.443 54.8676 318.851 55.4568C319.045 55.7514 319.249 56.0663 319.433 56.4015C319.545 56.5515 319.599 56.7363 319.586 56.9226C319.573 57.109 319.493 57.2845 319.361 57.4174C319.222 57.5348 319.057 57.618 318.88 57.6604C318.703 57.7027 318.518 57.703 318.341 57.6612C317.993 57.5523 317.678 57.3605 317.422 57.1025C316.911 56.6047 316.483 56.0866 316.105 55.7311L315.207 54.8066C315.082 54.6843 314.946 54.5754 314.798 54.4816Z" fill="#894943"/>
<path d="M313.992 56.6149C314.027 56.704 314.072 56.7891 314.125 56.8689C314.227 57.0416 314.37 57.2651 314.564 57.5495C315.062 58.2826 315.68 58.9281 316.391 59.4594C316.596 59.624 316.854 59.7086 317.117 59.6974C317.38 59.6862 317.63 59.5799 317.82 59.3984C317.95 59.2344 318.038 59.0416 318.077 58.8365C318.116 58.6314 318.105 58.4199 318.045 58.22C317.947 57.8498 317.774 57.5038 317.534 57.2041C317.534 57.2041 317.759 57.58 317.932 58.22C317.975 58.3959 317.976 58.5792 317.935 58.7554C317.894 58.9317 317.813 59.0962 317.698 59.2359C317.528 59.3838 317.311 59.4653 317.085 59.4653C316.86 59.4653 316.642 59.3838 316.473 59.2359C315.783 58.7108 315.172 58.0918 314.656 57.3971C314.452 57.1218 314.231 56.8605 313.992 56.6149Z" fill="#894943"/>
<path d="M315.983 61.7756C315.983 61.7756 316.126 62.0194 316.534 62.1311C316.67 62.1716 316.812 62.1851 316.952 62.1707C317.093 62.1564 317.229 62.1145 317.354 62.0474C317.478 61.9804 317.588 61.8895 317.677 61.7801C317.765 61.6707 317.832 61.5448 317.871 61.4098C317.917 61.1334 317.887 60.85 317.784 60.5891C317.682 60.3282 317.511 60.0994 317.29 59.9267C317.137 59.7706 316.957 59.6432 316.759 59.5508C316.759 59.5508 316.932 59.7336 317.208 60.0181C317.396 60.1804 317.54 60.3877 317.626 60.6205C317.711 60.8533 317.736 61.1039 317.698 61.3489C317.615 61.5741 317.455 61.763 317.246 61.882C317.036 62.0009 316.792 62.0424 316.555 61.9991C316.355 61.949 316.163 61.8739 315.983 61.7756Z" fill="#894943"/>
<path d="M322.026 65.9C322.026 65.9 335.123 84.0335 337.501 86.6544C340.329 89.763 346.086 88.1072 349.536 86.0957C352.599 84.3484 366.043 73.2245 366.043 73.2245L359.377 62.6391L343.401 73.9763L329.11 60.0079" fill="#B5675E"/>
<path d="M361.806 57.1025L349.077 68.8156L359.214 82.6315L362.592 75.8353L362.756 56.5539L361.806 57.1025Z" fill="#35D0F2"/>
<path d="M379.711 113.463L352.588 111.808H328.61C323.599 111.752 318.766 113.652 315.146 117.1C308.449 123.663 310.674 131.323 316.095 135.081L324.18 137.926H354.201C354.201 137.926 387.591 138.373 389.929 137.855C393.634 137.022 396.574 126.213 396.574 126.213L379.711 113.463Z" fill="#263238"/>
<path d="M399.136 69.801C397.829 61.5013 388.683 54.959 388.683 54.3495C380.262 56.0359 370.013 55.5482 365.205 53.8517L361.816 57.1025L356.273 111.157C356.273 111.157 363.194 113.575 370.676 115.404C381.987 118.177 397.615 128.803 397.615 128.803L398.769 123.653C398.769 123.653 401.627 85.6081 399.136 69.801Z" fill="#35D0F2"/>
<path d="M357.866 95.9903C357.978 95.9903 358.948 87.8633 360.03 77.7045C361.112 67.5457 361.908 59.4187 361.786 59.4187C361.663 59.4187 360.704 67.5457 359.622 77.7045C358.54 87.8633 357.743 95.9802 357.866 95.9903Z" fill="#263238"/>
<path d="M368.38 86.2785L362.867 102.411L348.719 105.753C346.371 106.505 342.737 108.709 342.737 111.848C342.737 111.848 370.666 118.177 375.403 114.459C380.139 110.741 385.682 92.6075 385.682 92.6075L368.38 86.2785Z" fill="#B5675E"/>
<path d="M374.136 62.8524C377.127 58.86 380.21 59.307 384.344 62.0905C385.63 62.9401 386.808 63.9394 387.856 65.067C390.643 68.1146 394.062 75.8556 394.062 75.8556L389.254 95.005L366.133 87.4671L370.941 68.4093C371.864 66.4796 372.932 64.622 374.136 62.8524Z" fill="#35D0F2"/>
<path d="M382.886 58.9108H381.865C381.692 58.9108 381.498 58.9108 381.283 58.9108L380.579 59.0225C380.307 59.0536 380.038 59.1012 379.773 59.1648L378.874 59.4289C377.352 59.9619 375.96 60.8101 374.791 61.9178C374.066 62.6009 373.422 63.3644 372.872 64.1934C372.24 65.1093 371.722 66.0986 371.331 67.1394L366.227 87.3554V87.5078H366.369L370.177 88.7573L389.501 95.0354H389.644V94.8932C391.062 89.1535 392.236 84.3687 393.073 80.996C393.472 79.3299 393.788 78.0093 394.013 77.095C394.104 76.6582 394.186 76.3128 394.247 76.0791C394.282 75.9601 394.303 75.8373 394.309 75.7134C394.309 75.7134 394.309 75.8353 394.206 76.069L393.921 77.0849C393.686 77.9992 393.349 79.3096 392.9 80.9655L389.368 94.8322L389.542 94.7307L370.238 88.4119L366.431 87.1725L366.533 87.3656L371.637 67.1293C372.36 65.1837 373.507 63.4214 374.995 61.9686C376.13 60.867 377.487 60.0185 378.976 59.4797L379.864 59.1952C380.126 59.1246 380.392 59.0703 380.661 59.0327L381.355 58.9108C381.569 58.9108 381.763 58.9108 381.937 58.86L382.621 58.9108H382.886Z" fill="#263238"/>
<path d="M221.097 137.431L219.433 120.132L193.369 88.0823C191.636 96.0149 189.7 111.328 192.298 118.98C193.271 121.886 194.556 124.791 194.245 127.833C193.943 130.641 192.298 133.266 192.483 136.085C192.649 138.187 193.865 140.046 195.043 141.809C195.209 142.245 195.46 142.644 195.782 142.983C196.103 143.322 196.489 143.594 196.917 143.784C197.345 143.974 197.807 144.078 198.275 144.09C198.743 144.102 199.209 144.021 199.646 143.853L219.258 139.978C219.886 139.933 220.473 139.653 220.902 139.194C221.179 138.649 221.248 138.023 221.097 137.431Z" fill="#263238"/>
<path d="M158.769 194.509L175.49 187.797L188.288 154.585L205.311 163.302C205.311 163.302 203.666 166.585 200.152 174.702C198.79 177.83 194.313 186.567 192.454 190.819C190.763 194.753 187.973 198.122 184.416 200.525C180.859 202.929 176.683 204.266 172.385 204.379L156.696 204.786L158.769 194.509Z" fill="#FFBF9D"/>
<path d="M150.457 188.078L147.936 185.434C147.449 185.124 146.879 184.969 146.301 184.988L138.291 185.23C137.547 185.303 136.828 185.541 136.188 185.926C135.548 186.312 135.003 186.835 134.593 187.458L131.673 192.388C131.673 192.388 129.727 195.768 129.96 196.582C130.074 196.922 130.31 197.208 130.622 197.387C130.934 197.565 131.301 197.624 131.654 197.551C131.654 197.551 131.926 199.11 132.452 199.43C132.752 199.579 133.079 199.667 133.413 199.687C133.748 199.707 134.083 199.659 134.398 199.546C134.533 199.846 134.755 200.099 135.037 200.272C135.318 200.445 135.645 200.529 135.975 200.514C136.113 200.505 136.25 200.482 136.384 200.447C137.357 200.156 137.766 198.325 137.766 198.325L141.824 197.58C141.824 197.58 147.664 201.454 149.708 203.992C151.752 206.529 157.144 204.592 157.144 204.592L159.158 195.013L150.457 188.078Z" fill="#FFBF9D"/>
<path d="M144.56 189.221C143.993 189.403 143.403 189.501 142.808 189.511C141.708 189.637 140.141 189.676 138.389 189.908L138.574 189.773C138.274 190.442 137.926 191.09 137.533 191.71C136.474 193.395 135.179 194.921 133.688 196.243C133.102 196.825 132.425 197.309 131.683 197.676C131.635 197.609 132.374 197.047 133.445 195.991C134.83 194.616 136.057 193.093 137.104 191.449C137.483 190.855 137.827 190.24 138.136 189.608L138.195 189.482H138.321C140.131 189.279 141.689 189.298 142.788 189.269C143.376 189.194 143.969 189.177 144.56 189.221Z" fill="#FF9A6C"/>
<path d="M144.744 193.027C144.272 193.255 143.76 193.39 143.236 193.424C141.94 193.602 140.623 193.556 139.343 193.289L139.625 193.124C139.458 193.616 139.263 194.098 139.041 194.567C138.319 196.071 137.295 197.413 136.034 198.509C135.546 198.998 134.958 199.378 134.311 199.623C134.311 199.565 134.905 199.11 135.79 198.248C136.933 197.122 137.878 195.812 138.584 194.374C138.798 193.922 138.99 193.459 139.158 192.989L139.236 192.785L139.44 192.834C141.191 193.135 142.976 193.2 144.744 193.027Z" fill="#FF9A6C"/>
<path d="M154.905 194.994L147.771 191.671C146.815 191.137 145.751 190.823 144.656 190.751C143.483 190.849 142.349 191.22 141.347 191.836L137.513 193.822C137.291 193.906 137.107 194.067 136.997 194.277C136.975 194.428 136.993 194.582 137.052 194.724C137.11 194.865 137.205 194.989 137.328 195.081C138.322 196.018 139.624 196.566 140.992 196.623C142.361 196.679 143.704 196.242 144.773 195.391C145.289 197.095 146.102 198.695 147.177 200.117C147.723 200.823 148.442 201.378 149.265 201.727C150.089 202.076 150.988 202.209 151.878 202.113" fill="#FFBF9D"/>
<path d="M151.879 202.132C151.879 202.132 151.82 202.132 151.694 202.19C151.503 202.239 151.307 202.262 151.11 202.258C150.361 202.269 149.621 202.093 148.959 201.744C147.933 201.197 147.065 200.396 146.438 199.42C145.661 198.174 145.033 196.841 144.569 195.449L144.93 195.546C143.767 196.507 142.27 196.973 140.764 196.843C139.528 196.772 138.351 196.296 137.416 195.487C137.249 195.344 137.096 195.185 136.959 195.013C136.871 194.906 136.807 194.781 136.772 194.647C136.737 194.514 136.731 194.374 136.754 194.238C136.824 194.016 136.978 193.828 137.182 193.715C137.358 193.608 137.494 193.541 137.65 193.463L138.535 193.008L140.277 192.107C141.363 191.477 142.519 190.976 143.723 190.616C144.878 190.411 146.068 190.591 147.11 191.129C148.083 191.565 148.939 191.991 149.757 192.378L153.553 194.219C154.032 194.42 154.488 194.67 154.915 194.964C154.419 194.813 153.934 194.625 153.465 194.403L149.572 192.698L146.915 191.516C145.952 191.027 144.853 190.87 143.791 191.071C142.635 191.434 141.525 191.928 140.482 192.543L138.74 193.444L137.854 193.909C137.552 194.064 137.231 194.209 137.221 194.364C137.212 194.519 137.435 194.877 137.727 195.11C138.028 195.357 138.354 195.571 138.701 195.749C139.361 196.088 140.082 196.292 140.822 196.35C142.202 196.485 143.579 196.074 144.657 195.207L144.9 194.994L145.007 195.303C145.448 196.656 146.039 197.956 146.769 199.178C147.349 200.116 148.155 200.895 149.115 201.444C149.952 201.93 150.91 202.169 151.879 202.132Z" fill="#FF9A6C"/>
<path d="M250.129 120.142C246.606 114.331 243.705 98.0199 243.501 92.6927C243.296 87.3656 240.231 81.0698 236.493 77.2537C232.756 73.4375 226.274 71.9652 221.894 75.055L220.999 79.5879C222.722 100.151 222.488 121.043 224.201 141.577C224.435 144.279 226.634 146.72 227.87 149.141C229.106 151.563 231.578 153.548 234.294 153.384C237.856 153.161 243.248 151.553 244.348 148.173C248.367 135.988 265.253 144.996 250.129 120.142Z" fill="#263238"/>
<path d="M237.924 79.5589C235.435 76.3803 232.261 73.7982 228.636 72.0028C225.011 70.2075 221.028 69.2447 216.979 69.1854C212.22 69.1079 210.254 70.0959 206.828 71.016C203.401 71.8332 200.372 73.8255 198.273 76.6434C195.84 80.0722 193.806 83.9174 193.348 88.0823C192.743 92.3513 192.534 96.6668 192.725 100.974C192.925 105.303 194.323 109.493 196.765 113.081L207.753 115.018C213.816 115.231 219.967 115.425 225.875 114.05C231.782 112.674 237.554 109.507 240.688 104.364C245.077 97.1481 243.247 86.0967 237.924 79.5589Z" fill="#263238"/>
<path d="M228.191 79.4911L213.592 73.6796L209.767 74.1155C201.164 74.1155 195.227 83.5978 195.169 90.5813C195.11 98.3298 195.334 107.706 196.57 113.381C199.042 124.811 208.833 125.76 208.833 125.76C208.833 125.76 208.638 131.842 208.561 135.678L230.946 134.07L232.065 83.4332C232.039 82.4107 231.625 81.4358 230.907 80.7045C230.188 79.9732 229.218 79.5397 228.191 79.4911Z" fill="#FFBF9D"/>
<path d="M213.689 110.679C213.623 110.263 213.453 109.871 213.193 109.538C212.934 109.205 212.594 108.943 212.206 108.776C211.818 108.609 211.393 108.542 210.972 108.582C210.551 108.621 210.146 108.767 209.796 109.004C209.323 109.365 208.955 109.845 208.731 110.395C208.507 110.945 208.435 111.545 208.521 112.132C208.773 112.485 209.098 112.779 209.475 112.997C209.851 113.214 210.269 113.348 210.702 113.391H211.11C211.793 113.385 212.449 113.126 212.95 112.665C213.217 112.412 213.422 112.101 213.55 111.757C213.678 111.413 213.726 111.044 213.689 110.679Z" fill="#FF9A6C"/>
<path d="M198.994 100.306C199.009 100.691 199.176 101.055 199.458 101.32C199.74 101.584 200.115 101.728 200.503 101.72C200.693 101.725 200.882 101.692 201.058 101.624C201.235 101.555 201.397 101.451 201.533 101.32C201.669 101.188 201.777 101.03 201.851 100.856C201.925 100.682 201.963 100.495 201.963 100.306C201.945 99.9212 201.778 99.5586 201.496 99.2947C201.215 99.0307 200.841 98.8862 200.454 98.8916C200.264 98.8851 200.074 98.9169 199.897 98.9852C199.719 99.0534 199.557 99.1567 199.421 99.2888C199.285 99.4209 199.177 99.5791 199.103 99.7539C199.03 99.9286 198.993 100.116 198.994 100.306Z" fill="#263238"/>
<path d="M197.7 94.4071C197.895 94.5912 198.965 93.7001 200.62 93.6129C202.274 93.5257 203.432 94.2619 203.54 94.0585C203.647 93.8551 203.413 93.6323 202.887 93.2933C202.172 92.8487 201.335 92.6387 200.493 92.6928C199.661 92.7376 198.864 93.0427 198.216 93.5645C197.749 93.9713 197.603 94.3296 197.7 94.4071Z" fill="#263238"/>
<path d="M207.967 106.882C207.11 106.658 206.226 106.548 205.34 106.553C204.931 106.553 204.542 106.476 204.454 106.204C204.401 105.785 204.475 105.36 204.668 104.984C204.989 104.015 205.34 102.931 205.7 101.826C207.13 97.3322 208.143 93.6419 207.967 93.5935C207.792 93.5451 206.469 97.1288 205.048 101.623C204.707 102.737 204.376 103.793 204.074 104.8C203.844 105.305 203.799 105.874 203.948 106.408C204.017 106.547 204.117 106.669 204.24 106.764C204.363 106.86 204.506 106.927 204.658 106.96C204.885 107.01 205.117 107.03 205.349 107.018C206.224 107.08 207.104 107.034 207.967 106.882Z" fill="#263238"/>
<path d="M208.726 125.711C214.183 125.499 219.473 123.782 224.007 120.752C224.007 120.752 220.318 128.966 208.668 128.501L208.726 125.711Z" fill="#FF9A6C"/>
<path d="M212.727 107.725C212.464 107.725 212.562 109.449 211.141 110.757C209.72 112.064 207.871 111.967 207.871 112.209C207.871 112.452 208.299 112.529 209.077 112.5C210.096 112.463 211.068 112.069 211.822 111.386C212.543 110.729 212.979 109.819 213.039 108.849C213.068 108.122 212.844 107.706 212.727 107.725Z" fill="#263238"/>
<path d="M198.235 88.8378C198.527 89.2058 199.743 88.8862 201.155 88.925C202.566 88.9637 203.802 89.2736 204.074 88.925C204.201 88.7506 204.074 88.3825 203.51 88.0145C202.803 87.5747 201.987 87.3367 201.153 87.3264C200.319 87.3162 199.498 87.5341 198.78 87.9564C198.293 88.2857 198.108 88.6537 198.235 88.8378Z" fill="#263238"/>
<path d="M216.396 99.9086C216.404 100.294 216.261 100.667 215.997 100.949C215.734 101.231 215.371 101.4 214.984 101.42C214.795 101.438 214.604 101.419 214.423 101.363C214.242 101.307 214.073 101.215 213.928 101.093C213.783 100.971 213.664 100.822 213.578 100.653C213.492 100.485 213.44 100.301 213.427 100.112C213.419 99.7271 213.562 99.3541 213.825 99.0721C214.089 98.79 214.452 98.6211 214.838 98.6011C215.027 98.5825 215.218 98.6018 215.4 98.6578C215.581 98.7139 215.749 98.8056 215.894 98.9275C216.04 99.0494 216.159 99.1991 216.245 99.3676C216.331 99.5361 216.382 99.7201 216.396 99.9086Z" fill="#263238"/>
<path d="M219.326 93.7872C219.141 93.9906 218.002 93.177 216.406 93.2061C214.81 93.2352 213.651 94.0584 213.486 93.8647C213.321 93.671 213.583 93.4289 214.08 93.0511C214.763 92.5599 215.583 92.2925 216.425 92.286C217.26 92.2663 218.079 92.5142 218.761 92.993C219.238 93.3611 219.433 93.7001 219.326 93.7872Z" fill="#263238"/>
<path d="M218.362 88.6925C218.05 89.0606 216.814 88.6925 215.325 88.6925C213.836 88.6925 212.59 88.9831 212.289 88.6151C212.162 88.431 212.357 88.063 212.902 87.7143C213.642 87.2755 214.493 87.0539 215.354 87.075C216.214 87.0752 217.056 87.3133 217.788 87.7627C218.323 88.1501 218.459 88.5182 218.362 88.6925Z" fill="#263238"/>
<path d="M230.021 102.766C229.973 101.904 230.858 99.8602 231.705 99.6471C233.963 99.1725 238.07 99.1338 238.421 104.877C238.907 112.733 230.888 111.599 230.858 111.377C230.829 111.154 230.138 105.73 230.021 102.766Z" fill="#FFBF9D"/>
<path d="M232.853 108.374C232.853 108.374 232.999 108.461 233.243 108.548C233.571 108.677 233.936 108.677 234.265 108.548C235.082 108.19 235.705 106.834 235.656 105.41C235.633 104.735 235.46 104.074 235.15 103.473C235.057 103.237 234.909 103.025 234.717 102.857C234.526 102.689 234.298 102.568 234.051 102.504C233.89 102.474 233.724 102.5 233.58 102.578C233.437 102.656 233.324 102.78 233.262 102.931C233.165 103.163 233.262 103.318 233.184 103.328C233.106 103.337 233.009 103.211 233.058 102.882C233.085 102.684 233.181 102.502 233.33 102.369C233.538 102.193 233.808 102.105 234.08 102.127C234.408 102.17 234.72 102.296 234.985 102.492C235.251 102.689 235.462 102.95 235.598 103.25C235.976 103.909 236.184 104.651 236.201 105.41C236.201 106.999 235.53 108.529 234.411 108.926C234.202 108.998 233.979 109.024 233.759 109.002C233.539 108.981 233.326 108.912 233.136 108.8C232.883 108.558 232.834 108.374 232.853 108.374Z" fill="#FF9A6C"/>
<path d="M232.026 99.6568L230.021 101.72C221.359 93.4773 204.443 72.8273 205.388 74.0574C209.333 72.5877 213.587 72.1281 217.758 72.7207C224.191 73.8055 236.405 77.0115 236.25 84.5761C236.094 92.1406 232.026 99.6568 232.026 99.6568Z" fill="#263238"/>
<path d="M243.492 97.9424C243.474 97.786 243.435 97.6328 243.375 97.4872C243.231 97.06 243.052 96.6454 242.84 96.2474C242.02 94.795 240.895 93.5362 239.54 92.5571C237.525 91.123 235.276 90.045 232.893 89.3705C230.255 88.5182 227.277 87.8498 224.357 86.6101C221.604 85.461 218.991 84.0019 216.571 82.2612C214.593 80.8185 212.752 79.1974 211.072 77.4183C209.936 76.2307 208.873 74.9757 207.89 73.6602C207.559 73.2244 207.296 72.866 207.092 72.5851C207.008 72.4524 206.91 72.329 206.8 72.2171C206.861 72.3597 206.936 72.496 207.024 72.6239C207.189 72.8854 207.423 73.2728 207.754 73.7571C208.702 75.1153 209.739 76.4095 210.858 77.6314C212.532 79.4313 214.373 81.0691 216.357 82.5227C218.79 84.2999 221.427 85.7825 224.211 86.9394C227.024 88.0009 229.889 88.919 232.796 89.6901C235.144 90.3356 237.368 91.3668 239.375 92.7411C240.722 93.6799 241.859 94.8871 242.713 96.2861C243.278 97.3225 243.453 97.9521 243.492 97.9424Z" fill="#455A64"/>
<path d="M241.194 99.1725C241.221 98.5859 241.118 98.0006 240.892 97.4581C240.296 95.9571 239.262 94.6683 237.923 93.7582C235.92 92.4766 233.68 91.6042 231.334 91.1915C228.522 90.6328 225.78 89.7654 223.159 88.6054C220.546 87.4226 218.093 85.9158 215.86 84.1209C214.036 82.6746 212.36 81.0524 210.857 79.278C209.847 78.0649 208.914 76.7904 208.064 75.4618C207.801 75.0163 207.577 74.6579 207.402 74.3673C207.227 74.0768 207.159 73.9896 207.139 73.9993C207.191 74.139 207.253 74.2749 207.324 74.4061L207.937 75.549C208.74 76.9039 209.641 78.1987 210.633 79.4233C212.121 81.2553 213.794 82.9301 215.626 84.4211C217.873 86.2474 220.346 87.7805 222.984 88.9831C225.634 90.1535 228.409 91.0179 231.257 91.5595C233.561 91.9505 235.768 92.7792 237.758 94.0003C239.075 94.8641 240.112 96.0885 240.746 97.5259C240.948 98.059 241.098 98.6105 241.194 99.1725Z" fill="#455A64"/>
<path d="M225.272 102.563C225.235 104.611 225.81 106.625 226.924 108.349C228.037 110.073 229.639 111.429 231.527 112.247C233.415 113.065 235.504 113.308 237.531 112.944C239.557 112.581 241.43 111.628 242.912 110.205C244.395 108.783 245.42 106.955 245.859 104.953C246.297 102.951 246.13 100.864 245.377 98.9568C244.625 97.0494 243.321 95.4068 241.63 94.2367C239.94 93.0666 237.939 92.4214 235.88 92.3828C233.117 92.3335 230.448 93.3782 228.458 95.2871C226.469 97.196 225.323 99.8129 225.272 102.563Z" fill="#F29188"/>
<path d="M235.851 92.4118C235.851 92.4118 235.336 71.0354 216.386 68.2459C216.386 68.2459 208.853 67.3258 205.311 71.4713C205.311 71.4713 210.41 69.3985 215.306 70.6673C218.537 71.51 230.323 76.7209 230.878 94.1262L235.744 96.2183L235.851 92.4118Z" fill="#F29188"/>
<path d="M228.279 102.717C228.279 102.717 228.279 102.717 228.279 102.592C228.279 102.466 228.279 102.388 228.279 102.233C228.291 102.038 228.314 101.844 228.347 101.652C228.385 101.387 228.441 101.125 228.512 100.868C228.696 100.162 228.981 99.4868 229.359 98.8626C229.867 98.0366 230.528 97.3137 231.306 96.7317C232.242 96.0236 233.332 95.5427 234.488 95.3273C235.819 95.091 237.188 95.2079 238.459 95.6663C239.156 95.9047 239.813 96.2476 240.406 96.6833C240.707 96.9068 240.993 97.1494 241.262 97.4097C241.527 97.6848 241.774 97.9759 242.002 98.2814C242.947 99.57 243.461 101.122 243.471 102.717C243.456 103.523 243.325 104.322 243.082 105.09C242.832 105.83 242.468 106.526 242.002 107.154C241.774 107.459 241.527 107.75 241.262 108.025C240.993 108.286 240.707 108.528 240.406 108.752C239.815 109.194 239.158 109.541 238.459 109.778C237.272 110.21 235.994 110.338 234.744 110.15C233.494 109.962 232.312 109.465 231.306 108.703C230.528 108.121 229.867 107.398 229.359 106.572C228.98 105.949 228.694 105.273 228.512 104.567C228.44 104.31 228.385 104.048 228.347 103.783C228.314 103.591 228.291 103.397 228.279 103.202V102.843C228.279 102.756 228.279 102.717 228.279 102.717C228.279 102.717 228.279 102.717 228.279 102.843V103.202C228.278 103.4 228.295 103.597 228.327 103.793C228.358 104.06 228.406 104.326 228.473 104.587C228.644 105.307 228.926 105.997 229.31 106.631C229.813 107.477 230.473 108.22 231.257 108.819C232.279 109.606 233.485 110.121 234.761 110.317C236.038 110.514 237.343 110.385 238.556 109.943C239.254 109.697 239.91 109.348 240.503 108.907C240.811 108.677 241.103 108.428 241.379 108.161C241.655 107.884 241.909 107.586 242.138 107.27C242.618 106.625 242.992 105.909 243.248 105.149C243.775 103.577 243.775 101.877 243.248 100.306C242.992 99.545 242.618 98.8291 242.138 98.1846C241.904 97.8722 241.65 97.5746 241.379 97.2935C241.103 97.0294 240.811 96.7835 240.503 96.5573C239.913 96.1098 239.256 95.7568 238.556 95.5113C237.257 95.0442 235.855 94.9339 234.498 95.1917C233.317 95.4082 232.206 95.903 231.257 96.6348C230.473 97.234 229.813 97.977 229.31 98.8238C228.928 99.4583 228.645 100.148 228.473 100.868C228.407 101.129 228.358 101.394 228.327 101.662C228.295 101.857 228.278 102.055 228.279 102.253V102.563C228.269 102.679 228.269 102.717 228.279 102.717Z" fill="#263238"/>
<path d="M233.458 99.5987C233.458 99.5987 234.781 101.052 236.504 102.766C238.227 104.48 239.647 105.836 239.686 105.798C239.725 105.759 238.363 104.335 236.64 102.63C234.917 100.926 233.496 99.56 233.458 99.5987Z" fill="#263238"/>
<path d="M234.654 102.301C234.988 102.763 235.373 103.185 235.803 103.56C236.186 103.977 236.618 104.347 237.087 104.664C236.755 104.205 236.369 103.785 235.939 103.415C235.557 102.994 235.126 102.62 234.654 102.301Z" fill="#263238"/>
<path d="M241.818 209.6L195.101 216.38C177.583 221.319 159.091 222.772 139.781 221.097L210.06 253.66L238.285 254.096C240.463 253.804 242.53 252.968 244.295 251.666C246.06 250.363 247.465 248.637 248.378 246.648C256.913 228.38 249.497 213.396 249.497 213.396C249.497 213.396 245.954 211.672 241.818 209.6Z" fill="#263238"/>
<path d="M208.541 133.731L231.218 131.29L235.374 135.048L219.179 144.521L212.035 148.211L204.979 146.071L202.741 141.887L208.541 133.731Z" fill="#FFBF9D"/>
<path d="M177.961 161.21C177.961 161.21 185.076 147.65 186.838 144.666C188.999 141.358 191.952 138.636 195.431 136.743L208.541 133.731C208.541 133.731 207.179 140.259 215.354 140.715C225.719 141.286 232.162 131.387 232.162 131.387C232.162 131.387 243.997 132.598 247.267 133.973C250.537 135.349 259.774 139.184 261.136 151.408L264.299 171.37L239.296 173.307L239.647 199.885L229.019 208.534C229.019 208.534 198.517 218.985 196.57 219.673C195.597 220.002 195.869 207.081 193.65 196.049L189.533 186.102C187.868 182.124 186.881 177.898 186.614 173.598C186.458 170.76 186.536 168.619 186.536 168.619C186.536 168.619 180.151 166.401 177.961 161.21Z" fill="#F2DF80"/>
<path d="M197.66 209.203L239.579 196.689L239.277 173.268L260.621 171.651C260.621 171.651 258.917 183.777 258.674 189.996C258.314 198.945 253.993 211.44 251.092 214.094C248.192 216.748 196.59 219.634 196.59 219.634L197.66 209.203Z" fill="#FFBF9D"/>
<path d="M173.894 216.564C174.059 216.846 174.304 217.073 174.599 217.216C174.893 217.359 175.224 217.412 175.549 217.368C175.689 217.342 175.826 217.303 175.958 217.251C176.882 216.874 176.639 214.975 176.639 214.975L181.106 213.89C181.106 213.89 187.267 217.203 189.554 219.547C191.841 221.891 197.019 219.45 197.019 219.45L198.119 209.764L189.262 202.878C189.262 202.878 189.807 203.285 189.126 201.909C188.445 200.534 185.865 201.289 185.865 201.289C185.408 200.621 183.676 200.505 183.676 200.505L176.454 201.909C175.718 202.051 175.023 202.356 174.42 202.8C173.817 203.244 173.322 203.817 172.97 204.476L170.264 209.571C170.264 209.571 168.911 213.193 169.232 213.987C169.375 214.319 169.636 214.586 169.964 214.738C170.293 214.89 170.667 214.916 171.013 214.811C171.013 214.811 171.549 217.087 172.162 217.116C172.784 217.04 173.385 216.846 173.933 216.544L173.894 216.564Z" fill="#FFBF9D"/>
<path d="M188.882 208.486C188.882 208.563 187.908 208.554 186.351 208.738C184.341 208.99 182.376 209.518 180.512 210.307C179.501 210.747 178.525 211.262 177.592 211.847C176.755 212.408 175.859 212.883 175.645 213.542C175.593 213.686 175.579 213.842 175.607 213.994C175.634 214.145 175.701 214.287 175.801 214.404C175.949 214.6 176.152 214.749 176.385 214.83C176.597 214.87 176.815 214.87 177.027 214.83C177.027 214.83 176.823 215.053 176.336 214.966C176.051 214.9 175.792 214.747 175.597 214.53C175.459 214.381 175.363 214.199 175.317 214.002C175.271 213.805 175.277 213.6 175.334 213.406C175.497 212.972 175.784 212.594 176.161 212.321C176.541 212.031 176.94 211.73 177.378 211.45C180.084 209.683 183.193 208.624 186.419 208.37C187.241 208.289 188.071 208.328 188.882 208.486Z" fill="#FF9A6C"/>
<path d="M189.747 213.077C189.747 213.212 186.779 213.319 183.149 213.813C179.518 214.307 176.618 214.975 176.579 214.84C177.17 214.559 177.795 214.357 178.438 214.239C179.967 213.857 181.517 213.563 183.08 213.358C184.642 213.14 186.215 213.014 187.791 212.98C188.445 212.925 189.103 212.957 189.747 213.077Z" fill="#FF9A6C"/>
<path d="M173.922 216.38C173.838 216.132 173.786 215.875 173.766 215.614C173.665 214.908 173.61 214.197 173.601 213.484C173.584 212.991 173.614 212.498 173.688 212.011C173.776 211.432 173.978 210.876 174.282 210.374C174.913 209.219 175.766 208.199 176.793 207.372C177.809 206.544 178.94 205.865 180.151 205.357C181.153 204.982 182.2 204.737 183.265 204.631C184.16 204.534 184.89 204.495 185.396 204.476C185.655 204.437 185.917 204.437 186.175 204.476C185.213 204.691 184.237 204.847 183.255 204.941C182.229 205.089 181.223 205.356 180.258 205.735C179.102 206.25 178.022 206.918 177.046 207.721C176.055 208.505 175.226 209.472 174.603 210.568C174.099 211.452 173.849 212.458 173.883 213.474C173.893 215.266 174.019 216.37 173.922 216.38Z" fill="#FF9A6C"/>
<path d="M183.422 202.403C183.422 202.471 182.342 202.577 180.609 202.916C178.877 203.255 176.278 203.633 174.925 206.045C173.6 207.882 172.53 209.889 171.743 212.011C171.497 212.918 171.337 213.845 171.266 214.781C171.188 214.534 171.155 214.275 171.169 214.016C171.152 213.307 171.24 212.598 171.431 211.915C172.149 209.71 173.22 207.637 174.604 205.774C174.969 205.205 175.407 204.688 175.908 204.234C176.396 203.813 176.956 203.484 177.563 203.265C178.553 202.927 179.573 202.684 180.609 202.539C181.537 202.374 182.482 202.328 183.422 202.403Z" fill="#FF9A6C"/>
<path d="M187.84 218.123C187.676 218.041 187.523 217.94 187.382 217.823L186.078 216.941C184.455 215.878 182.771 214.908 181.037 214.036H181.134L176.686 215.15L176.822 214.946C176.866 215.313 176.866 215.684 176.822 216.05C176.798 216.46 176.649 216.852 176.394 217.174C176.242 217.339 176.041 217.452 175.82 217.493C175.618 217.566 175.402 217.596 175.187 217.581C174.746 217.549 174.332 217.359 174.019 217.048C173.937 216.971 173.862 216.887 173.796 216.796L173.747 216.728L174.019 216.806L173.883 216.874L173.319 217.125C173.118 217.205 172.914 217.273 172.705 217.329C172.597 217.359 172.487 217.379 172.375 217.387C172.233 217.416 172.087 217.399 171.956 217.339C171.74 217.202 171.568 217.007 171.46 216.777C171.362 216.583 171.265 216.38 171.187 216.176C171.025 215.764 170.886 215.344 170.769 214.917L171.051 215.082C170.75 215.172 170.431 215.178 170.127 215.099C169.823 215.021 169.547 214.86 169.328 214.636C169.097 214.398 168.959 214.085 168.939 213.755C168.941 213.458 168.974 213.163 169.036 212.873C169.282 211.745 169.607 210.634 170.01 209.551L171.46 206.829C171.761 206.248 172.063 205.677 172.375 205.105C172.636 204.513 172.963 203.951 173.348 203.43C173.78 202.926 174.309 202.514 174.905 202.219C175.486 201.956 176.102 201.78 176.735 201.696L183.548 200.388H183.606C184.021 200.422 184.432 200.497 184.832 200.611C185.262 200.706 185.65 200.933 185.942 201.26L185.679 201.202C186.042 201.011 186.446 200.911 186.857 200.911C187.267 200.911 187.671 201.011 188.034 201.202C188.675 201.598 189.141 202.221 189.339 202.946L189.27 202.858L195.402 207.546L197.056 208.844C197.255 208.986 197.441 209.145 197.611 209.319C197.394 209.207 197.188 209.074 196.998 208.922L195.285 207.701L189.066 203.13V203.071C188.89 202.441 188.484 201.899 187.927 201.551C187.62 201.41 187.284 201.343 186.946 201.355C186.608 201.367 186.277 201.457 185.981 201.619L185.825 201.696L185.718 201.56C185.479 201.314 185.17 201.145 184.832 201.076C184.456 200.976 184.072 200.912 183.684 200.882H183.742L176.929 202.219C176.338 202.301 175.761 202.467 175.217 202.713C174.679 202.982 174.202 203.358 173.815 203.817C173.429 204.31 173.103 204.847 172.842 205.415C172.54 205.977 172.229 206.558 171.927 207.139C171.431 208.108 170.954 208.989 170.477 209.851C170.075 210.912 169.75 211.999 169.503 213.106C169.447 213.364 169.418 213.627 169.416 213.89C169.433 214.111 169.526 214.32 169.679 214.481C169.841 214.643 170.044 214.758 170.267 214.814C170.49 214.871 170.724 214.866 170.944 214.801L171.168 214.752L171.226 214.966C171.32 215.37 171.44 215.768 171.586 216.157C171.686 216.521 171.877 216.854 172.141 217.125C172.202 217.134 172.265 217.134 172.326 217.125L172.598 217.067C172.787 217.022 172.973 216.964 173.153 216.893L173.688 216.661L173.825 216.593L174.097 216.67V216.719C174.145 216.792 174.2 216.861 174.263 216.922C174.511 217.163 174.833 217.313 175.178 217.348C175.346 217.354 175.514 217.331 175.674 217.28C175.825 217.255 175.964 217.184 176.073 217.077C176.409 216.49 176.53 215.805 176.414 215.14V214.975H176.569L181.037 213.929H181.095H181.144C182.878 214.833 184.55 215.852 186.146 216.98C186.701 217.377 187.119 217.707 187.402 217.949C187.552 217.996 187.698 218.055 187.84 218.123Z" fill="#FF9A6C"/>
<path d="M166.059 224.157C166.059 224.157 136.482 214.917 127.187 211.915C111.196 206.752 100.724 211.973 97.4246 217.668C93.1423 225.058 103.41 239.461 107.371 242.773C119.05 252.585 139.197 253.912 139.197 253.912L211.481 253.776L190.381 225.3L166.059 224.157Z" fill="#263238"/>
<path d="M170.478 237.514C158.432 238.89 146.231 237.224 135.002 232.671C133.079 231.806 131.099 231.071 129.075 230.472C127.083 229.968 125.016 229.824 122.973 230.046C122.161 230.067 121.361 230.25 120.621 230.582C119.88 230.915 119.214 231.391 118.661 231.983C117.221 233.921 117.961 236.565 118.759 238.763C119.732 241.388 120.705 244.081 122.515 246.183C124.657 248.633 127.771 250.057 130.895 251.026C136.998 252.963 143.441 253.486 149.835 253.738L171.801 252.546L170.478 237.514Z" fill="#E0E0E0"/>
<path d="M128.062 230.521C128.062 230.521 128.218 230.715 128.403 231.112C128.652 231.673 128.848 232.257 128.987 232.855C129.457 234.858 129.372 236.949 128.741 238.908C128.111 240.866 126.958 242.617 125.405 243.974C124.94 244.38 124.438 244.744 123.907 245.059C123.719 245.186 123.512 245.281 123.294 245.34C123.245 245.272 124.082 244.788 125.182 243.732C126.618 242.366 127.689 240.664 128.297 238.782C128.905 236.899 129.032 234.895 128.666 232.952C128.393 231.383 127.994 230.55 128.062 230.521Z" fill="#263238"/>
<path d="M241.536 222.356C239.823 217.513 239.531 210.394 228.942 206.975C218.352 203.556 210.343 210.113 204.912 212.389C199.481 214.665 169.719 230.899 169.719 230.899C169.719 230.899 164.113 240.836 165.709 245.233C167.305 249.631 174.556 253.951 174.556 253.951H207.822C216.406 253.951 232.377 253.67 232.377 253.67C234.508 250.185 236.419 246.571 238.1 242.851L238.392 241.427C238.392 240.294 243.248 227.199 241.536 222.356Z" fill="#263238"/>
<path d="M223.101 247.51C223.061 247.677 222.977 247.831 222.858 247.955C222.531 248.32 222.162 248.645 221.758 248.924C220.279 249.943 218.705 250.819 217.057 251.539C215.929 252.066 214.768 252.522 213.583 252.905C212.212 253.319 210.809 253.62 209.388 253.805C206.154 254.127 202.904 254.253 199.655 254.183C192.735 254.299 186.468 254.551 181.922 254.503C179.645 254.503 177.806 254.396 176.54 254.261C176.053 254.224 175.569 254.156 175.09 254.057C174.92 254.045 174.752 254.005 174.594 253.941C174.594 253.893 175.285 254.018 176.54 254.086C177.796 254.154 179.645 254.202 181.913 254.173C186.438 254.173 192.706 253.834 199.636 253.718C202.884 253.788 206.133 253.675 209.368 253.379C210.768 253.212 212.152 252.93 213.505 252.537C214.676 252.171 215.827 251.741 216.95 251.248C218.597 250.556 220.183 249.726 221.69 248.769C222.096 248.511 222.475 248.213 222.819 247.878C223.023 247.665 223.072 247.49 223.101 247.51Z" fill="#263238"/>
<path d="M174.555 253.96C174.555 253.96 174.4 253.893 174.108 253.728C173.816 253.563 173.407 253.311 172.872 252.963C171.308 251.946 169.845 250.785 168.502 249.495C167.52 248.565 166.684 247.494 166.02 246.318C165.337 244.846 165.166 243.19 165.533 241.611C166.342 237.837 167.696 234.199 169.553 230.811V230.763H169.601C175.042 227.78 181.281 224.38 188.093 220.729C191.51 218.908 195.072 217.019 198.799 215.12C200.648 214.152 202.517 213.183 204.483 212.331C206.449 211.479 208.298 210.394 210.255 209.425C212.953 207.957 215.846 206.875 218.848 206.21C220.322 205.916 221.823 205.78 223.325 205.803C224.797 205.851 226.259 206.059 227.686 206.423C230.447 207.101 233.041 208.333 235.306 210.045C236.364 210.912 237.297 211.919 238.08 213.038C238.807 214.133 239.408 215.306 239.871 216.535C240.328 217.736 240.669 218.956 241.01 220.128C241.407 221.279 241.732 222.453 241.983 223.644C242.132 225.919 241.942 228.204 241.418 230.424C240.98 232.526 240.445 234.502 239.939 236.342C239.666 237.252 239.404 238.143 239.16 238.996C238.897 239.804 238.677 240.625 238.499 241.456C238.391 241.998 238.294 242.425 238.207 242.88C237.303 245.786 236.017 248.561 234.382 251.132C233.81 252.047 233.138 252.894 232.377 253.66C232.412 253.597 232.454 253.538 232.503 253.486L232.893 253.011C233.393 252.392 233.858 251.745 234.284 251.074C235.864 248.49 237.106 245.717 237.983 242.822C238.528 242.376 238.421 241.931 238.265 241.398C238.427 240.54 238.642 239.692 238.907 238.86L239.666 236.197C240.173 234.356 240.688 232.39 241.097 230.298C241.602 228.118 241.783 225.876 241.632 223.644C241.378 222.476 241.053 221.325 240.659 220.196C240.319 219.014 239.978 217.813 239.511 216.631C239.056 215.434 238.469 214.29 237.759 213.222C236.997 212.136 236.09 211.158 235.063 210.316C232.847 208.644 230.31 207.444 227.608 206.791C224.785 206.054 221.828 205.988 218.975 206.597C216.008 207.247 213.15 208.317 210.488 209.774C208.542 210.743 206.673 211.837 204.649 212.68C202.624 213.522 200.843 214.51 198.994 215.45C195.296 217.339 191.733 219.227 188.288 221.038L169.796 231.054L169.864 230.986C168.001 234.322 166.637 237.911 165.815 241.64C165.445 243.162 165.593 244.763 166.234 246.192C166.877 247.35 167.684 248.41 168.628 249.34C169.956 250.632 171.391 251.808 172.92 252.856L174.127 253.66L174.555 253.96Z" fill="#263238"/>
<path d="M228.697 241.679C228.697 241.679 238.615 242.86 237.729 247.684C236.843 252.507 233.612 254.135 233.612 254.135L206.672 254.193C206.672 254.193 222.76 253.079 228.697 241.679Z" fill="#E0E0E0"/>
<path d="M229.661 239.335C229.659 239.806 229.556 240.272 229.359 240.701C228.987 241.777 228.444 242.787 227.753 243.693C226.816 245.021 225.496 246.035 223.967 246.599C225.215 245.667 226.36 244.605 227.383 243.432C228.26 242.134 229.022 240.763 229.661 239.335Z" fill="#263238"/>
<path d="M226.245 241.233C226.258 242.445 225.92 243.636 225.272 244.662C224.79 245.769 224.049 246.745 223.111 247.51C223.004 247.422 223.987 246.173 224.863 244.459C225.739 242.744 226.089 241.214 226.245 241.233Z" fill="#263238"/>
<path d="M238.898 252.788C238.82 252.788 239.463 251.529 240.241 249.456C242.269 244.039 242.937 238.21 242.188 232.477C241.896 230.288 241.555 228.952 241.633 228.932C241.783 229.222 241.888 229.532 241.944 229.853C242.186 230.699 242.375 231.559 242.509 232.429C243.468 238.213 242.794 244.148 240.562 249.573C240.232 250.393 239.852 251.192 239.424 251.965C239.284 252.26 239.107 252.537 238.898 252.788Z" fill="#455A64"/>
<g opacity="0.3">
<path d="M233.262 239.073C233.184 238.424 232.931 237.659 232.289 237.524C231.646 237.388 230.965 238.269 230.644 238.996C227.228 246.861 216.045 252.982 207.422 253.776C211.587 253.779 215.746 253.455 219.86 252.808C223.369 252.276 226.659 250.78 229.359 248.488C230.695 247.324 231.742 245.869 232.419 244.236C233.096 242.603 233.385 240.836 233.262 239.073Z" fill="black"/>
</g>
<path d="M167.626 228.38C165.986 227.922 164.39 227.319 162.857 226.579C161.265 225.973 159.731 225.228 158.273 224.351C159.915 224.802 161.512 225.406 163.042 226.153C164.634 226.758 166.168 227.503 167.626 228.38Z" fill="#263238"/>
<g opacity="0.2">
<path d="M177.232 224.235C164.404 221.794 151.528 219.624 138.603 217.726L128.978 220.729C131.673 225.717 137.007 228.894 142.545 230.221C148.083 231.547 153.874 231.189 159.548 230.695C165.796 230.124 172.2 229.252 177.65 226.143C178.059 225.901 178.526 225.542 178.478 225.068C178.429 224.593 177.767 224.341 177.232 224.235Z" fill="black"/>
</g>
<path d="M114.066 186.199L130.223 221.784C130.552 222.507 131.081 223.121 131.748 223.555C132.415 223.989 133.192 224.225 133.989 224.235L181.134 224.845L187.071 221.658L177.766 220.98L163.275 186.383C163.05 185.844 162.671 185.382 162.185 185.057C161.698 184.731 161.126 184.556 160.54 184.552L115.371 184.204C115.133 184.202 114.898 184.26 114.688 184.373C114.479 184.485 114.301 184.648 114.171 184.847C114.041 185.045 113.963 185.273 113.945 185.51C113.927 185.746 113.969 185.983 114.066 186.199Z" fill="#E0E0E0"/>
<path d="M114.067 186.199C113.986 186.07 113.936 185.924 113.921 185.773C113.894 185.576 113.908 185.377 113.963 185.186C114.017 184.996 114.111 184.819 114.239 184.667C114.366 184.514 114.524 184.39 114.702 184.302C114.88 184.214 115.075 184.164 115.274 184.155H119.42L138.34 184.213L151.479 184.281H158.827H160.774C161.476 184.334 162.142 184.613 162.672 185.075C163.171 185.555 163.543 186.151 163.752 186.809L164.521 188.64L178.03 220.835L177.806 220.67L186.789 221.329H187.11L188.016 221.397L187.217 221.823L181.271 225.01H181.212H181.144L145.367 224.603L137.387 224.487C136.092 224.487 134.846 224.487 133.552 224.409C132.91 224.339 132.291 224.129 131.739 223.794C131.188 223.459 130.717 223.008 130.36 222.472C128.248 218.065 126.467 213.987 124.793 210.258C121.445 202.82 118.758 196.824 116.88 192.659C115.975 190.596 115.264 188.998 114.768 187.884L114.233 186.644C114.116 186.364 114.067 186.209 114.067 186.209C114.067 186.209 114.145 186.344 114.281 186.625L114.865 187.845C115.371 188.95 116.111 190.538 117.065 192.582C119.011 196.727 121.717 202.703 125.114 210.113C126.827 213.803 128.656 217.949 130.71 222.239C131.036 222.729 131.467 223.141 131.972 223.446C132.477 223.75 133.043 223.94 133.63 224.002C134.837 224.06 136.141 224.002 137.425 224.06L145.406 224.157L181.164 224.593H181.037L186.974 221.407L187.081 221.9H186.76L177.777 221.242H177.582L177.524 221.097L164.064 188.862L163.304 187.032C163.119 186.435 162.784 185.895 162.331 185.463C161.88 185.069 161.314 184.831 160.716 184.785H158.769L151.421 184.717L138.272 184.591L119.362 184.368L116.442 184.32H115.264C114.947 184.334 114.644 184.457 114.408 184.668C114.249 184.812 114.125 184.989 114.046 185.187C113.966 185.385 113.934 185.599 113.95 185.811C113.975 185.944 114.014 186.074 114.067 186.199Z" fill="#263238"/>
<path d="M176.385 224.787C176.293 224.669 176.217 224.538 176.161 224.399L175.636 223.247L173.689 218.985C172.112 215.372 169.971 210.374 167.674 204.825C165.377 199.275 163.334 194.219 161.922 190.548C161.222 188.707 160.667 187.216 160.297 186.17C160.141 185.695 160.005 185.298 159.888 184.969C159.828 184.834 159.792 184.69 159.781 184.543C159.86 184.668 159.925 184.801 159.976 184.94C160.112 185.259 160.278 185.637 160.472 186.112C160.91 187.196 161.504 188.649 162.234 190.422C163.762 194.122 165.815 199.139 168.073 204.65C170.331 210.161 172.434 215.159 173.913 218.859C174.643 220.632 175.237 222.094 175.675 223.179C175.86 223.644 176.005 224.041 176.132 224.361C176.231 224.493 176.316 224.636 176.385 224.787Z" fill="#263238"/>
<path d="M147.128 203.449C147.13 203.906 146.996 204.353 146.742 204.733C146.488 205.114 146.127 205.411 145.703 205.587C145.279 205.762 144.813 205.809 144.362 205.72C143.912 205.632 143.499 205.412 143.174 205.089C142.85 204.766 142.629 204.354 142.54 203.906C142.451 203.458 142.497 202.994 142.674 202.572C142.85 202.151 143.149 201.791 143.531 201.538C143.914 201.286 144.363 201.152 144.822 201.154C145.433 201.154 146.02 201.395 146.453 201.826C146.885 202.256 147.128 202.84 147.128 203.449Z" fill="white"/>
<path d="M193.038 146.216C193.106 146.216 192.425 147.524 191.471 149.626C190.237 152.373 189.203 155.205 188.376 158.101C187.572 161.001 186.986 163.957 186.624 166.944C186.342 169.239 186.264 170.663 186.177 170.663C186.124 170.343 186.108 170.018 186.128 169.694C186.128 169.045 186.128 168.106 186.264 166.944C186.794 160.884 188.444 154.973 191.131 149.509C191.656 148.463 192.104 147.64 192.444 147.078C192.598 146.763 192.798 146.472 193.038 146.216Z" fill="#263238"/>
<path d="M264.28 171.38C264.113 171.432 263.939 171.458 263.765 171.457L262.256 171.612L256.66 172.077L237.496 173.511H237.253V173.268C237.097 170.731 236.922 168.057 236.747 165.307C236.474 160.522 236.25 155.96 236.173 151.805C235.924 148.072 236.776 144.349 238.625 141.092C239.888 138.906 241.752 137.125 243.998 135.959C244.621 135.651 245.273 135.405 245.944 135.223C246.17 135.149 246.401 135.091 246.635 135.048C246.635 135.116 245.662 135.32 244.134 136.124C241.937 137.331 240.124 139.126 238.898 141.305C237.128 144.521 236.33 148.177 236.601 151.834C236.698 155.979 236.941 160.551 237.214 165.316C237.389 168.067 237.545 170.74 237.71 173.268L237.448 173.046L256.611 171.786L262.227 171.457L263.735 171.399C263.916 171.372 264.099 171.366 264.28 171.38Z" fill="#263238"/>
<path d="M217.282 187.642C216.989 187.581 216.706 187.477 216.445 187.332C216.107 187.207 215.781 187.051 215.471 186.867C215.066 186.651 214.672 186.412 214.294 186.15C213.292 185.472 212.366 184.689 211.53 183.816C210.521 182.736 209.636 181.547 208.892 180.271C208.165 178.982 207.59 177.614 207.179 176.193C206.855 175.036 206.652 173.848 206.576 172.649C206.552 172.187 206.552 171.725 206.576 171.263C206.578 170.917 206.604 170.57 206.654 170.227C206.66 169.926 206.716 169.628 206.819 169.346C206.917 169.346 206.751 170.615 206.955 172.619C207.075 173.788 207.307 174.943 207.646 176.068C208.073 177.441 208.644 178.766 209.35 180.019C210.075 181.262 210.926 182.427 211.89 183.497C212.707 184.365 213.603 185.156 214.566 185.86C216.153 187.051 217.321 187.555 217.282 187.642Z" fill="#263238"/>
<path d="M245.71 118.835L231.257 115.512C231.257 125.663 228.425 129.741 226.031 135.087C223.637 140.434 221.593 146.458 223.316 152.057C223.939 154.091 225.262 156.115 227.287 156.696C228.741 157.023 230.266 156.784 231.549 156.028C234.469 154.478 236.348 151.495 237.613 148.454C238.878 145.412 239.686 142.177 241.175 139.233C242.43 136.734 244.182 134.477 245.117 131.843C246.051 129.208 247.55 122.089 245.71 118.835Z" fill="#263238"/>
</svg>
