<svg viewBox="0 0 1024 136" fill="none" xmlns="http://www.w3.org/2000/svg">
<path fill-rule="evenodd" clip-rule="evenodd" d="M0.458048 130.123L25.1728 127.4C49.035 124.679 97.612 119.236 146.208 119.06C195.657 118.881 244.272 123.972 292.887 129.063C341.502 134.155 390.117 139.246 438.685 131.169C487.252 123.092 536.625 101.843 585.144 80.5978C633.664 59.3524 682.184 38.107 730.78 37.9309C779.376 37.7548 828.048 58.648 877.554 74.2709C926.208 89.8968 974.842 100.255 998.733 105.436L1023.48 110.614L1023.08 1.60957e-05L998.351 0.0896006C974.479 0.176096 925.883 0.352177 877.287 0.528257C827.838 0.707427 779.242 0.883507 730.646 1.05959C682.05 1.23567 633.454 1.41175 584.858 1.58783C536.262 1.76391 486.813 1.94308 438.217 2.11916C389.621 2.29524 341.025 2.47132 292.429 2.6474C243.833 2.82348 195.237 2.99956 145.788 3.17873C97.1921 3.35481 48.5961 3.53089 24.7243 3.61739L0 3.70697L0.458048 130.123Z" fill="#592020"/>
</svg>
