<svg width="1032" height="144" viewBox="0 0 1032 144" fill="none" xmlns="http://www.w3.org/2000/svg">
<g filter="url(#filter0_d_1_3)">
<path fill-rule="evenodd" clip-rule="evenodd" d="M4.45805 130.123L29.1728 127.4C53.035 124.679 101.612 119.236 150.208 119.06C199.657 118.881 248.272 123.972 296.887 129.063C345.502 134.155 394.117 139.246 442.685 131.169C491.252 123.092 540.625 101.843 589.144 80.5978C637.664 59.3524 686.184 38.107 734.78 37.9309C783.376 37.7548 832.048 58.648 881.554 74.2709C930.208 89.8968 978.842 100.255 1002.73 105.436L1027.48 110.614L1027.08 1.60957e-05L1002.35 0.0896006C978.479 0.176096 929.883 0.352177 881.287 0.528257C831.838 0.707427 783.242 0.883507 734.646 1.05959C686.05 1.23567 637.454 1.41175 588.858 1.58783C540.262 1.76391 490.813 1.94308 442.217 2.11916C393.621 2.29524 345.025 2.47132 296.429 2.6474C247.833 2.82348 199.237 2.99956 149.788 3.17873C101.192 3.35481 52.5961 3.53089 28.7243 3.61739L4 3.70697L4.45805 130.123Z" fill="#592020"/>
<path fill-rule="evenodd" clip-rule="evenodd" d="M4.45805 130.123L29.1728 127.4C53.035 124.679 101.612 119.236 150.208 119.06C199.657 118.881 248.272 123.972 296.887 129.063C345.502 134.155 394.117 139.246 442.685 131.169C491.252 123.092 540.625 101.843 589.144 80.5978C637.664 59.3524 686.184 38.107 734.78 37.9309C783.376 37.7548 832.048 58.648 881.554 74.2709C930.208 89.8968 978.842 100.255 1002.73 105.436L1027.48 110.614L1027.08 1.60957e-05L1002.35 0.0896006C978.479 0.176096 929.883 0.352177 881.287 0.528257C831.838 0.707427 783.242 0.883507 734.646 1.05959C686.05 1.23567 637.454 1.41175 588.858 1.58783C540.262 1.76391 490.813 1.94308 442.217 2.11916C393.621 2.29524 345.025 2.47132 296.429 2.6474C247.833 2.82348 199.237 2.99956 149.788 3.17873C101.192 3.35481 52.5961 3.53089 28.7243 3.61739L4 3.70697L4.45805 130.123Z" stroke="black"/>
</g>
<defs>
<filter id="filter0_d_1_3" x="0" y="1.52588e-05" width="1031.48" height="143.395" filterUnits="userSpaceOnUse" color-interpolation-filters="sRGB">
<feFlood flood-opacity="0" result="BackgroundImageFix"/>
<feColorMatrix in="SourceAlpha" type="matrix" values="0 0 0 0 0 0 0 0 0 0 0 0 0 0 0 0 0 0 127 0" result="hardAlpha"/>
<feOffset dy="4"/>
<feGaussianBlur stdDeviation="2"/>
<feComposite in2="hardAlpha" operator="out"/>
<feColorMatrix type="matrix" values="0 0 0 0 0 0 0 0 0 0 0 0 0 0 0 0 0 0 0.25 0"/>
<feBlend mode="normal" in2="BackgroundImageFix" result="effect1_dropShadow_1_3"/>
<feBlend mode="normal" in="SourceGraphic" in2="effect1_dropShadow_1_3" result="shape"/>
</filter>
</defs>
</svg>
