<svg width="1026" height="179" viewBox="0 0 1026 179" fill="none" xmlns="http://www.w3.org/2000/svg">
<path id="Vector" fill-rule="evenodd" clip-rule="evenodd" d="M0 0L34.2 16.5741C68.4 33.1481 136.8 66.2963 205.2 79.5556C273.6 92.8148 342 86.1852 410.4 72.9259C478.8 59.6667 547.2 39.7778 615.6 29.8333C684 19.8889 752.4 19.8889 820.8 36.463C889.2 53.037 957.6 86.1852 991.8 102.759L1026 119.333V179H991.8C957.6 179 889.2 179 820.8 179C752.4 179 684 179 615.6 179C547.2 179 478.8 179 410.4 179C342 179 273.6 179 205.2 179C136.8 179 68.4 179 34.2 179H0V0Z" fill="#592020"/>
</svg>
