<svg width="1034" height="187" viewBox="0 0 1034 187" fill="none" xmlns="http://www.w3.org/2000/svg">
<g filter="url(#filter0_d_172_214)">
<path fill-rule="evenodd" clip-rule="evenodd" d="M4 4L38.2 20.5741C72.4 37.1481 140.8 70.2963 209.2 83.5556C277.6 96.8148 346 90.1852 414.4 76.9259C482.8 63.6667 551.2 43.7778 619.6 33.8333C688 23.8889 756.4 23.8889 824.8 40.463C893.2 57.037 961.6 90.1852 995.8 106.759L1030 123.333V183H995.8C961.6 183 893.2 183 824.8 183C756.4 183 688 183 619.6 183C551.2 183 482.8 183 414.4 183C346 183 277.6 183 209.2 183C140.8 183 72.4 183 38.2 183H4V4Z" fill="#592020"/>
</g>
<defs>
<filter id="filter0_d_172_214" x="0" y="0" width="1034" height="187" filterUnits="userSpaceOnUse" color-interpolation-filters="sRGB">
<feFlood flood-opacity="0" result="BackgroundImageFix"/>
<feColorMatrix in="SourceAlpha" type="matrix" values="0 0 0 0 0 0 0 0 0 0 0 0 0 0 0 0 0 0 127 0" result="hardAlpha"/>
<feOffset/>
<feGaussianBlur stdDeviation="2"/>
<feComposite in2="hardAlpha" operator="out"/>
<feColorMatrix type="matrix" values="0 0 0 0 0 0 0 0 0 0 0 0 0 0 0 0 0 0 0.25 0"/>
<feBlend mode="normal" in2="BackgroundImageFix" result="effect1_dropShadow_172_214"/>
<feBlend mode="normal" in="SourceGraphic" in2="effect1_dropShadow_172_214" result="shape"/>
</filter>
</defs>
</svg>
